<svg width="41" height="48" viewBox="0 0 41 48" fill="none" xmlns="http://www.w3.org/2000/svg">
<path d="M1 5C1 2.79086 2.79086 1 5 1H19.7028C20.7764 1 21.8049 1.43153 22.557 2.19755L25.9686 5.67216L29.2159 9.07311C29.9264 9.81725 30.3229 10.8066 30.3229 11.8354V35.5407C30.3229 37.7498 28.532 39.5407 26.3229 39.5407H5C2.79086 39.5407 1 37.7498 1 35.5407V5Z" fill="white" stroke="#555347" stroke-width="2"/>
<rect x="7.51749" y="8.98207" width="7.26691" height="2.85405" rx="1.42703" fill="#555347"/>
<rect x="7.51749" y="14.4999" width="15.9086" height="2.85405" rx="1.42703" fill="#555347"/>
<rect x="7.51749" y="20.208" width="15.9086" height="2.85405" rx="1.42703" fill="#555347"/>
<rect x="16.1592" y="8.98207" width="2.94604" height="2.85405" rx="1.42703" fill="#555347"/>
<rect x="20.4801" y="8.98207" width="2.94604" height="2.85405" rx="1.42703" fill="#555347"/>
<rect x="18.2902" y="25.5186" width="21.5548" height="20.8193" rx="10.4097" fill="white" stroke="#555347" stroke-width="2"/>
<rect x="25.0667" y="35.4187" width="8.00177" height="1.01921" rx="0.509607" fill="white" stroke="#555347" stroke-width="1.01921"/>
<rect x="0.527075" y="-0.525425" width="7.68368" height="1.05245" rx="0.526224" transform="matrix(0.00161803 -0.999999 0.999999 0.00151746 29.0597 40.2972)" fill="white" stroke="#555347" stroke-width="1.05245"/>
</svg>
