<svg width="171" height="194" viewBox="0 0 171 194" fill="none" xmlns="http://www.w3.org/2000/svg">
<rect x="10" width="150" height="150" rx="75" fill="#555347"/>
<path d="M15.793 184.322H18.4785C18.4069 185.273 18.1432 186.116 17.6875 186.852C17.2318 187.581 16.597 188.154 15.7832 188.57C14.9694 188.987 13.9831 189.195 12.8242 189.195C11.9323 189.195 11.1283 189.039 10.4121 188.727C9.70247 188.408 9.09375 187.955 8.58594 187.369C8.08464 186.777 7.70052 186.067 7.43359 185.24C7.16667 184.407 7.0332 183.473 7.0332 182.438V181.354C7.0332 180.318 7.16992 179.384 7.44336 178.551C7.7168 177.717 8.10742 177.008 8.61523 176.422C9.12956 175.829 9.74479 175.374 10.4609 175.055C11.1836 174.736 11.9909 174.576 12.8828 174.576C14.0417 174.576 15.0215 174.791 15.8223 175.221C16.623 175.644 17.2448 176.227 17.6875 176.969C18.1302 177.711 18.3971 178.564 18.4883 179.527H15.8027C15.7507 178.928 15.6204 178.421 15.4121 178.004C15.2103 177.587 14.9043 177.271 14.4941 177.057C14.0905 176.835 13.5534 176.725 12.8828 176.725C12.362 176.725 11.903 176.822 11.5059 177.018C11.1152 177.213 10.7897 177.506 10.5293 177.896C10.2689 178.281 10.0736 178.762 9.94336 179.342C9.81315 179.915 9.74805 180.579 9.74805 181.334V182.438C9.74805 183.16 9.80664 183.808 9.92383 184.381C10.041 184.954 10.2233 185.439 10.4707 185.836C10.7181 186.233 11.0371 186.536 11.4277 186.744C11.8184 186.952 12.2839 187.057 12.8242 187.057C13.4818 187.057 14.0156 186.952 14.4258 186.744C14.8424 186.536 15.1582 186.23 15.373 185.826C15.5944 185.423 15.7344 184.921 15.793 184.322ZM26.1836 186.754V181.881C26.1836 181.523 26.1217 181.214 25.998 180.953C25.8743 180.693 25.6855 180.491 25.4316 180.348C25.1777 180.204 24.8555 180.133 24.4648 180.133C24.1198 180.133 23.8171 180.191 23.5566 180.309C23.3027 180.426 23.1074 180.592 22.9707 180.807C22.834 181.015 22.7656 181.256 22.7656 181.529H20.1777C20.1777 181.093 20.2819 180.68 20.4902 180.289C20.6986 179.892 20.9948 179.54 21.3789 179.234C21.7695 178.922 22.235 178.678 22.7754 178.502C23.3223 178.326 23.9342 178.238 24.6113 178.238C25.4121 178.238 26.125 178.375 26.75 178.648C27.3815 178.915 27.8763 179.319 28.2344 179.859C28.599 180.4 28.7812 181.08 28.7812 181.9V186.51C28.7812 187.037 28.8138 187.49 28.8789 187.867C28.9505 188.238 29.0547 188.561 29.1914 188.834V189H26.5645C26.4408 188.733 26.3464 188.395 26.2812 187.984C26.2161 187.568 26.1836 187.158 26.1836 186.754ZM26.5449 182.564L26.5645 184.098H24.9336C24.5299 184.098 24.1751 184.14 23.8691 184.225C23.5632 184.303 23.3125 184.42 23.1172 184.576C22.9219 184.726 22.7754 184.908 22.6777 185.123C22.5801 185.331 22.5312 185.569 22.5312 185.836C22.5312 186.096 22.5898 186.331 22.707 186.539C22.8307 186.747 23.0065 186.913 23.2344 187.037C23.4688 187.154 23.7422 187.213 24.0547 187.213C24.5104 187.213 24.9076 187.122 25.2461 186.939C25.5846 186.751 25.8483 186.523 26.0371 186.256C26.2259 185.989 26.3268 185.735 26.3398 185.494L27.082 186.607C26.9909 186.874 26.8542 187.158 26.6719 187.457C26.4896 187.757 26.2552 188.036 25.9688 188.297C25.6823 188.557 25.3372 188.772 24.9336 188.941C24.5299 189.111 24.0612 189.195 23.5273 189.195C22.8438 189.195 22.2318 189.059 21.6914 188.785C21.151 188.512 20.7246 188.137 20.4121 187.662C20.0996 187.187 19.9434 186.646 19.9434 186.041C19.9434 185.481 20.0475 184.986 20.2559 184.557C20.4642 184.127 20.7734 183.766 21.1836 183.473C21.5938 183.173 22.1016 182.949 22.707 182.799C23.319 182.643 24.0189 182.564 24.8066 182.564H26.5449ZM37.4434 186.754V174H40.041V189H37.6973L37.4434 186.754ZM30.6562 183.844V183.639C30.6562 182.831 30.7474 182.099 30.9297 181.441C31.1185 180.777 31.3919 180.208 31.75 179.732C32.1081 179.257 32.541 178.889 33.0488 178.629C33.5632 178.368 34.1458 178.238 34.7969 178.238C35.4284 178.238 35.9785 178.365 36.4473 178.619C36.9225 178.873 37.3262 179.234 37.6582 179.703C37.9967 180.172 38.2669 180.729 38.4688 181.373C38.6706 182.011 38.8171 182.714 38.9082 183.482V184.039C38.8171 184.788 38.6706 185.475 38.4688 186.1C38.2669 186.725 37.9967 187.271 37.6582 187.74C37.3262 188.202 36.9225 188.561 36.4473 188.814C35.972 189.068 35.4154 189.195 34.7773 189.195C34.1328 189.195 33.5534 189.062 33.0391 188.795C32.5312 188.528 32.0983 188.154 31.7402 187.672C31.3887 187.19 31.1185 186.624 30.9297 185.973C30.7474 185.322 30.6562 184.612 30.6562 183.844ZM33.2441 183.639V183.844C33.2441 184.299 33.2832 184.726 33.3613 185.123C33.4395 185.52 33.5664 185.872 33.7422 186.178C33.918 186.477 34.1426 186.712 34.416 186.881C34.696 187.05 35.0345 187.135 35.4316 187.135C35.9395 187.135 36.3561 187.024 36.6816 186.803C37.0137 186.575 37.2708 186.266 37.4531 185.875C37.6354 185.478 37.7526 185.032 37.8047 184.537V183.004C37.7786 182.613 37.7103 182.252 37.5996 181.92C37.4954 181.588 37.3457 181.301 37.1504 181.061C36.9616 180.82 36.7272 180.631 36.4473 180.494C36.1673 180.357 35.8353 180.289 35.4512 180.289C35.054 180.289 34.7155 180.377 34.4355 180.553C34.1556 180.722 33.9277 180.96 33.752 181.266C33.5762 181.572 33.446 181.926 33.3613 182.33C33.2832 182.734 33.2441 183.17 33.2441 183.639ZM48.1953 186.754V181.881C48.1953 181.523 48.1335 181.214 48.0098 180.953C47.8861 180.693 47.6973 180.491 47.4434 180.348C47.1895 180.204 46.8672 180.133 46.4766 180.133C46.1315 180.133 45.8288 180.191 45.5684 180.309C45.3145 180.426 45.1191 180.592 44.9824 180.807C44.8457 181.015 44.7773 181.256 44.7773 181.529H42.1895C42.1895 181.093 42.2936 180.68 42.502 180.289C42.7103 179.892 43.0065 179.54 43.3906 179.234C43.7812 178.922 44.2467 178.678 44.7871 178.502C45.334 178.326 45.946 178.238 46.623 178.238C47.4238 178.238 48.1367 178.375 48.7617 178.648C49.3932 178.915 49.888 179.319 50.2461 179.859C50.6107 180.4 50.793 181.08 50.793 181.9V186.51C50.793 187.037 50.8255 187.49 50.8906 187.867C50.9622 188.238 51.0664 188.561 51.2031 188.834V189H48.5762C48.4525 188.733 48.3581 188.395 48.293 187.984C48.2279 187.568 48.1953 187.158 48.1953 186.754ZM48.5566 182.564L48.5762 184.098H46.9453C46.5417 184.098 46.1868 184.14 45.8809 184.225C45.5749 184.303 45.3242 184.42 45.1289 184.576C44.9336 184.726 44.7871 184.908 44.6895 185.123C44.5918 185.331 44.543 185.569 44.543 185.836C44.543 186.096 44.6016 186.331 44.7188 186.539C44.8424 186.747 45.0182 186.913 45.2461 187.037C45.4805 187.154 45.7539 187.213 46.0664 187.213C46.5221 187.213 46.9193 187.122 47.2578 186.939C47.5964 186.751 47.86 186.523 48.0488 186.256C48.2376 185.989 48.3385 185.735 48.3516 185.494L49.0938 186.607C49.0026 186.874 48.8659 187.158 48.6836 187.457C48.5013 187.757 48.2669 188.036 47.9805 188.297C47.694 188.557 47.349 188.772 46.9453 188.941C46.5417 189.111 46.0729 189.195 45.5391 189.195C44.8555 189.195 44.2435 189.059 43.7031 188.785C43.1628 188.512 42.7363 188.137 42.4238 187.662C42.1113 187.187 41.9551 186.646 41.9551 186.041C41.9551 185.481 42.0592 184.986 42.2676 184.557C42.4759 184.127 42.7852 183.766 43.1953 183.473C43.6055 183.173 44.1133 182.949 44.7188 182.799C45.3307 182.643 46.0306 182.564 46.8184 182.564H48.5566ZM58.9277 186.109C58.9277 185.888 58.8691 185.689 58.752 185.514C58.6348 185.338 58.4134 185.178 58.0879 185.035C57.7689 184.885 57.3001 184.745 56.6816 184.615C56.1348 184.498 55.6302 184.352 55.168 184.176C54.7057 184 54.3086 183.788 53.9766 183.541C53.6445 183.287 53.3841 182.991 53.1953 182.652C53.013 182.307 52.9219 181.91 52.9219 181.461C52.9219 181.025 53.0163 180.615 53.2051 180.23C53.3939 179.84 53.6673 179.498 54.0254 179.205C54.3835 178.906 54.8197 178.671 55.334 178.502C55.8483 178.326 56.4277 178.238 57.0723 178.238C57.9707 178.238 58.7422 178.385 59.3867 178.678C60.0378 178.971 60.5358 179.374 60.8809 179.889C61.2259 180.396 61.3984 180.969 61.3984 181.607H58.8203C58.8203 181.327 58.7552 181.074 58.625 180.846C58.5013 180.618 58.3092 180.436 58.0488 180.299C57.7884 180.156 57.4596 180.084 57.0625 180.084C56.7044 180.084 56.4017 180.143 56.1543 180.26C55.9134 180.377 55.7311 180.53 55.6074 180.719C55.4837 180.908 55.4219 181.116 55.4219 181.344C55.4219 181.513 55.4544 181.666 55.5195 181.803C55.5911 181.933 55.7051 182.053 55.8613 182.164C56.0176 182.275 56.2292 182.376 56.4961 182.467C56.7695 182.558 57.1048 182.646 57.502 182.73C58.2897 182.887 58.9766 183.095 59.5625 183.355C60.1549 183.609 60.6172 183.948 60.9492 184.371C61.2812 184.794 61.4473 185.335 61.4473 185.992C61.4473 186.461 61.3464 186.891 61.1445 187.281C60.9427 187.665 60.6497 188.001 60.2656 188.287C59.8815 188.574 59.4225 188.798 58.8887 188.961C58.3548 189.117 57.7526 189.195 57.082 189.195C56.112 189.195 55.2917 189.023 54.6211 188.678C53.9505 188.326 53.4427 187.883 53.0977 187.35C52.7526 186.809 52.5801 186.249 52.5801 185.67H55.0508C55.0703 186.08 55.181 186.409 55.3828 186.656C55.5846 186.904 55.8385 187.083 56.1445 187.193C56.457 187.298 56.7858 187.35 57.1309 187.35C57.5215 187.35 57.8503 187.298 58.1172 187.193C58.3841 187.083 58.5859 186.936 58.7227 186.754C58.8594 186.565 58.9277 186.35 58.9277 186.109ZM68.4102 178.434V180.289H62.3555V178.434H68.4102ZM63.9766 175.836H66.5645V185.953C66.5645 186.266 66.6068 186.507 66.6914 186.676C66.776 186.845 66.903 186.959 67.0723 187.018C67.2415 187.076 67.4434 187.105 67.6777 187.105C67.847 187.105 68.0033 187.096 68.1465 187.076C68.2897 187.057 68.4102 187.037 68.5078 187.018L68.5176 188.951C68.3027 189.023 68.0586 189.081 67.7852 189.127C67.5182 189.173 67.2155 189.195 66.877 189.195C66.2975 189.195 65.7897 189.098 65.3535 188.902C64.9173 188.701 64.5788 188.378 64.3379 187.936C64.097 187.486 63.9766 186.894 63.9766 186.158V175.836ZM72.707 180.592V189H70.1289V178.434H72.5703L72.707 180.592ZM75.9199 178.365L75.8809 180.768C75.7376 180.742 75.5749 180.722 75.3926 180.709C75.2168 180.696 75.0508 180.689 74.8945 180.689C74.4974 180.689 74.1491 180.745 73.8496 180.855C73.5501 180.96 73.2995 181.113 73.0977 181.314C72.9023 181.516 72.7526 181.764 72.6484 182.057C72.5443 182.343 72.4857 182.669 72.4727 183.033L71.916 182.965C71.916 182.294 71.9844 181.673 72.1211 181.1C72.2578 180.527 72.4564 180.025 72.7168 179.596C72.9772 179.166 73.3027 178.834 73.6934 178.6C74.0905 178.359 74.5462 178.238 75.0605 178.238C75.2038 178.238 75.3568 178.251 75.5195 178.277C75.6888 178.297 75.8223 178.326 75.9199 178.365ZM82.8242 186.754V181.881C82.8242 181.523 82.7624 181.214 82.6387 180.953C82.515 180.693 82.3262 180.491 82.0723 180.348C81.8184 180.204 81.4961 180.133 81.1055 180.133C80.7604 180.133 80.4577 180.191 80.1973 180.309C79.9434 180.426 79.748 180.592 79.6113 180.807C79.4746 181.015 79.4062 181.256 79.4062 181.529H76.8184C76.8184 181.093 76.9225 180.68 77.1309 180.289C77.3392 179.892 77.6354 179.54 78.0195 179.234C78.4102 178.922 78.8757 178.678 79.416 178.502C79.9629 178.326 80.5749 178.238 81.252 178.238C82.0527 178.238 82.7656 178.375 83.3906 178.648C84.0221 178.915 84.5169 179.319 84.875 179.859C85.2396 180.4 85.4219 181.08 85.4219 181.9V186.51C85.4219 187.037 85.4544 187.49 85.5195 187.867C85.5911 188.238 85.6953 188.561 85.832 188.834V189H83.2051C83.0814 188.733 82.987 188.395 82.9219 187.984C82.8568 187.568 82.8242 187.158 82.8242 186.754ZM83.1855 182.564L83.2051 184.098H81.5742C81.1706 184.098 80.8158 184.14 80.5098 184.225C80.2038 184.303 79.9531 184.42 79.7578 184.576C79.5625 184.726 79.416 184.908 79.3184 185.123C79.2207 185.331 79.1719 185.569 79.1719 185.836C79.1719 186.096 79.2305 186.331 79.3477 186.539C79.4714 186.747 79.6471 186.913 79.875 187.037C80.1094 187.154 80.3828 187.213 80.6953 187.213C81.151 187.213 81.5482 187.122 81.8867 186.939C82.2253 186.751 82.4889 186.523 82.6777 186.256C82.8665 185.989 82.9674 185.735 82.9805 185.494L83.7227 186.607C83.6315 186.874 83.4948 187.158 83.3125 187.457C83.1302 187.757 82.8958 188.036 82.6094 188.297C82.3229 188.557 81.9779 188.772 81.5742 188.941C81.1706 189.111 80.7018 189.195 80.168 189.195C79.4844 189.195 78.8724 189.059 78.332 188.785C77.7917 188.512 77.3652 188.137 77.0527 187.662C76.7402 187.187 76.584 186.646 76.584 186.041C76.584 185.481 76.6882 184.986 76.8965 184.557C77.1048 184.127 77.4141 183.766 77.8242 183.473C78.2344 183.173 78.7422 182.949 79.3477 182.799C79.9596 182.643 80.6595 182.564 81.4473 182.564H83.1855ZM90.3242 180.592V189H87.7461V178.434H90.1875L90.3242 180.592ZM93.5371 178.365L93.498 180.768C93.3548 180.742 93.1921 180.722 93.0098 180.709C92.834 180.696 92.668 180.689 92.5117 180.689C92.1146 180.689 91.7663 180.745 91.4668 180.855C91.1673 180.96 90.9167 181.113 90.7148 181.314C90.5195 181.516 90.3698 181.764 90.2656 182.057C90.1615 182.343 90.1029 182.669 90.0898 183.033L89.5332 182.965C89.5332 182.294 89.6016 181.673 89.7383 181.1C89.875 180.527 90.0736 180.025 90.334 179.596C90.5944 179.166 90.9199 178.834 91.3105 178.6C91.7077 178.359 92.1634 178.238 92.6777 178.238C92.821 178.238 92.974 178.251 93.1367 178.277C93.306 178.297 93.4395 178.326 93.5371 178.365ZM105.598 183.814H101.936V181.705H105.598C106.197 181.705 106.682 181.607 107.053 181.412C107.43 181.21 107.707 180.937 107.883 180.592C108.059 180.24 108.146 179.84 108.146 179.391C108.146 178.954 108.059 178.548 107.883 178.17C107.707 177.792 107.43 177.486 107.053 177.252C106.682 177.018 106.197 176.9 105.598 176.9H102.814V189H100.129V174.781H105.598C106.704 174.781 107.648 174.98 108.43 175.377C109.217 175.768 109.816 176.311 110.227 177.008C110.643 177.698 110.852 178.486 110.852 179.371C110.852 180.289 110.643 181.08 110.227 181.744C109.816 182.408 109.217 182.919 108.43 183.277C107.648 183.635 106.704 183.814 105.598 183.814ZM117.375 189.195C116.574 189.195 115.855 189.065 115.217 188.805C114.579 188.544 114.035 188.183 113.586 187.721C113.143 187.252 112.801 186.708 112.561 186.09C112.326 185.465 112.209 184.794 112.209 184.078V183.688C112.209 182.874 112.326 182.135 112.561 181.471C112.795 180.8 113.127 180.224 113.557 179.742C113.986 179.26 114.501 178.889 115.1 178.629C115.699 178.368 116.359 178.238 117.082 178.238C117.831 178.238 118.492 178.365 119.064 178.619C119.637 178.867 120.116 179.218 120.5 179.674C120.884 180.13 121.174 180.676 121.369 181.314C121.564 181.946 121.662 182.646 121.662 183.414V184.498H113.381V182.721H119.123V182.525C119.11 182.115 119.032 181.741 118.889 181.402C118.745 181.057 118.524 180.784 118.225 180.582C117.925 180.374 117.538 180.27 117.062 180.27C116.678 180.27 116.343 180.354 116.057 180.523C115.777 180.686 115.542 180.921 115.354 181.227C115.171 181.526 115.035 181.884 114.943 182.301C114.852 182.717 114.807 183.18 114.807 183.688V184.078C114.807 184.521 114.865 184.931 114.982 185.309C115.106 185.686 115.285 186.015 115.52 186.295C115.76 186.568 116.047 186.783 116.379 186.939C116.717 187.089 117.102 187.164 117.531 187.164C118.072 187.164 118.56 187.06 118.996 186.852C119.439 186.637 119.823 186.321 120.148 185.904L121.447 187.252C121.226 187.577 120.926 187.89 120.549 188.189C120.178 188.489 119.729 188.733 119.201 188.922C118.674 189.104 118.065 189.195 117.375 189.195ZM129.201 186.109C129.201 185.888 129.143 185.689 129.025 185.514C128.908 185.338 128.687 185.178 128.361 185.035C128.042 184.885 127.574 184.745 126.955 184.615C126.408 184.498 125.904 184.352 125.441 184.176C124.979 184 124.582 183.788 124.25 183.541C123.918 183.287 123.658 182.991 123.469 182.652C123.286 182.307 123.195 181.91 123.195 181.461C123.195 181.025 123.29 180.615 123.479 180.23C123.667 179.84 123.941 179.498 124.299 179.205C124.657 178.906 125.093 178.671 125.607 178.502C126.122 178.326 126.701 178.238 127.346 178.238C128.244 178.238 129.016 178.385 129.66 178.678C130.311 178.971 130.809 179.374 131.154 179.889C131.499 180.396 131.672 180.969 131.672 181.607H129.094C129.094 181.327 129.029 181.074 128.898 180.846C128.775 180.618 128.583 180.436 128.322 180.299C128.062 180.156 127.733 180.084 127.336 180.084C126.978 180.084 126.675 180.143 126.428 180.26C126.187 180.377 126.005 180.53 125.881 180.719C125.757 180.908 125.695 181.116 125.695 181.344C125.695 181.513 125.728 181.666 125.793 181.803C125.865 181.933 125.979 182.053 126.135 182.164C126.291 182.275 126.503 182.376 126.77 182.467C127.043 182.558 127.378 182.646 127.775 182.73C128.563 182.887 129.25 183.095 129.836 183.355C130.428 183.609 130.891 183.948 131.223 184.371C131.555 184.794 131.721 185.335 131.721 185.992C131.721 186.461 131.62 186.891 131.418 187.281C131.216 187.665 130.923 188.001 130.539 188.287C130.155 188.574 129.696 188.798 129.162 188.961C128.628 189.117 128.026 189.195 127.355 189.195C126.385 189.195 125.565 189.023 124.895 188.678C124.224 188.326 123.716 187.883 123.371 187.35C123.026 186.809 122.854 186.249 122.854 185.67H125.324C125.344 186.08 125.454 186.409 125.656 186.656C125.858 186.904 126.112 187.083 126.418 187.193C126.73 187.298 127.059 187.35 127.404 187.35C127.795 187.35 128.124 187.298 128.391 187.193C128.658 187.083 128.859 186.936 128.996 186.754C129.133 186.565 129.201 186.35 129.201 186.109ZM139.494 186.109C139.494 185.888 139.436 185.689 139.318 185.514C139.201 185.338 138.98 185.178 138.654 185.035C138.335 184.885 137.867 184.745 137.248 184.615C136.701 184.498 136.197 184.352 135.734 184.176C135.272 184 134.875 183.788 134.543 183.541C134.211 183.287 133.951 182.991 133.762 182.652C133.579 182.307 133.488 181.91 133.488 181.461C133.488 181.025 133.583 180.615 133.771 180.23C133.96 179.84 134.234 179.498 134.592 179.205C134.95 178.906 135.386 178.671 135.9 178.502C136.415 178.326 136.994 178.238 137.639 178.238C138.537 178.238 139.309 178.385 139.953 178.678C140.604 178.971 141.102 179.374 141.447 179.889C141.792 180.396 141.965 180.969 141.965 181.607H139.387C139.387 181.327 139.322 181.074 139.191 180.846C139.068 180.618 138.876 180.436 138.615 180.299C138.355 180.156 138.026 180.084 137.629 180.084C137.271 180.084 136.968 180.143 136.721 180.26C136.48 180.377 136.298 180.53 136.174 180.719C136.05 180.908 135.988 181.116 135.988 181.344C135.988 181.513 136.021 181.666 136.086 181.803C136.158 181.933 136.271 182.053 136.428 182.164C136.584 182.275 136.796 182.376 137.062 182.467C137.336 182.558 137.671 182.646 138.068 182.73C138.856 182.887 139.543 183.095 140.129 183.355C140.721 183.609 141.184 183.948 141.516 184.371C141.848 184.794 142.014 185.335 142.014 185.992C142.014 186.461 141.913 186.891 141.711 187.281C141.509 187.665 141.216 188.001 140.832 188.287C140.448 188.574 139.989 188.798 139.455 188.961C138.921 189.117 138.319 189.195 137.648 189.195C136.678 189.195 135.858 189.023 135.188 188.678C134.517 188.326 134.009 187.883 133.664 187.35C133.319 186.809 133.146 186.249 133.146 185.67H135.617C135.637 186.08 135.747 186.409 135.949 186.656C136.151 186.904 136.405 187.083 136.711 187.193C137.023 187.298 137.352 187.35 137.697 187.35C138.088 187.35 138.417 187.298 138.684 187.193C138.951 187.083 139.152 186.936 139.289 186.754C139.426 186.565 139.494 186.35 139.494 186.109ZM143.518 183.824V183.619C143.518 182.844 143.628 182.132 143.85 181.48C144.071 180.823 144.393 180.253 144.816 179.771C145.24 179.29 145.757 178.915 146.369 178.648C146.981 178.375 147.678 178.238 148.459 178.238C149.253 178.238 149.956 178.375 150.568 178.648C151.187 178.915 151.708 179.29 152.131 179.771C152.554 180.253 152.876 180.823 153.098 181.48C153.319 182.132 153.43 182.844 153.43 183.619V183.824C153.43 184.592 153.319 185.305 153.098 185.963C152.876 186.614 152.554 187.184 152.131 187.672C151.708 188.154 151.19 188.528 150.578 188.795C149.966 189.062 149.266 189.195 148.479 189.195C147.697 189.195 146.997 189.062 146.379 188.795C145.76 188.528 145.24 188.154 144.816 187.672C144.393 187.184 144.071 186.614 143.85 185.963C143.628 185.305 143.518 184.592 143.518 183.824ZM146.096 183.619V183.824C146.096 184.286 146.141 184.719 146.232 185.123C146.324 185.527 146.464 185.882 146.652 186.188C146.841 186.493 147.085 186.734 147.385 186.91C147.691 187.079 148.055 187.164 148.479 187.164C148.895 187.164 149.253 187.079 149.553 186.91C149.852 186.734 150.096 186.493 150.285 186.188C150.48 185.882 150.624 185.527 150.715 185.123C150.806 184.719 150.852 184.286 150.852 183.824V183.619C150.852 183.163 150.806 182.737 150.715 182.34C150.624 181.936 150.48 181.581 150.285 181.275C150.096 180.963 149.849 180.719 149.543 180.543C149.243 180.361 148.882 180.27 148.459 180.27C148.042 180.27 147.684 180.361 147.385 180.543C147.085 180.719 146.841 180.963 146.652 181.275C146.464 181.581 146.324 181.936 146.232 182.34C146.141 182.737 146.096 183.163 146.096 183.619ZM161.125 186.754V181.881C161.125 181.523 161.063 181.214 160.939 180.953C160.816 180.693 160.627 180.491 160.373 180.348C160.119 180.204 159.797 180.133 159.406 180.133C159.061 180.133 158.758 180.191 158.498 180.309C158.244 180.426 158.049 180.592 157.912 180.807C157.775 181.015 157.707 181.256 157.707 181.529H155.119C155.119 181.093 155.223 180.68 155.432 180.289C155.64 179.892 155.936 179.54 156.32 179.234C156.711 178.922 157.176 178.678 157.717 178.502C158.264 178.326 158.876 178.238 159.553 178.238C160.354 178.238 161.066 178.375 161.691 178.648C162.323 178.915 162.818 179.319 163.176 179.859C163.54 180.4 163.723 181.08 163.723 181.9V186.51C163.723 187.037 163.755 187.49 163.82 187.867C163.892 188.238 163.996 188.561 164.133 188.834V189H161.506C161.382 188.733 161.288 188.395 161.223 187.984C161.158 187.568 161.125 187.158 161.125 186.754ZM161.486 182.564L161.506 184.098H159.875C159.471 184.098 159.117 184.14 158.811 184.225C158.505 184.303 158.254 184.42 158.059 184.576C157.863 184.726 157.717 184.908 157.619 185.123C157.521 185.331 157.473 185.569 157.473 185.836C157.473 186.096 157.531 186.331 157.648 186.539C157.772 186.747 157.948 186.913 158.176 187.037C158.41 187.154 158.684 187.213 158.996 187.213C159.452 187.213 159.849 187.122 160.188 186.939C160.526 186.751 160.79 186.523 160.979 186.256C161.167 185.989 161.268 185.735 161.281 185.494L162.023 186.607C161.932 186.874 161.796 187.158 161.613 187.457C161.431 187.757 161.197 188.036 160.91 188.297C160.624 188.557 160.279 188.772 159.875 188.941C159.471 189.111 159.003 189.195 158.469 189.195C157.785 189.195 157.173 189.059 156.633 188.785C156.092 188.512 155.666 188.137 155.354 187.662C155.041 187.187 154.885 186.646 154.885 186.041C154.885 185.481 154.989 184.986 155.197 184.557C155.406 184.127 155.715 183.766 156.125 183.473C156.535 183.173 157.043 182.949 157.648 182.799C158.26 182.643 158.96 182.564 159.748 182.564H161.486Z" fill="#555347"/>
<path d="M54 95.8996C54 82.0925 65.1929 70.8996 79 70.8996H93.1321C106.939 70.8996 118.132 82.0925 118.132 95.8996V101.814C118.132 104.575 115.894 106.814 113.132 106.814H59C56.2386 106.814 54 104.575 54 101.814V95.8996Z" fill="white"/>
<rect x="67.6816" y="29" width="35.914" height="35.914" rx="17.957" fill="white"/>
<rect x="100.255" y="85.5159" width="29.9841" height="29.9841" rx="14.9921" fill="#555347" stroke="white" stroke-width="7"/>
<rect x="108.99" y="99.682" width="12.5123" height="1.65188" rx="0.825941" fill="white" stroke="white" stroke-width="1.65188"/>
<rect x="0.827536" y="-0.824946" width="12.5065" height="1.65248" rx="0.826242" transform="matrix(0.00156751 -0.999999 0.999999 0.00156637 115.234 107.589)" fill="white" stroke="white" stroke-width="1.65248"/>
</svg>
