<svg width="260" height="191" viewBox="0 0 260 191" fill="none" xmlns="http://www.w3.org/2000/svg">
<path d="M16.9434 181.322H19.6289C19.5573 182.273 19.2936 183.116 18.8379 183.852C18.3822 184.581 17.7474 185.154 16.9336 185.57C16.1198 185.987 15.1335 186.195 13.9746 186.195C13.0827 186.195 12.2786 186.039 11.5625 185.727C10.8529 185.408 10.2441 184.955 9.73633 184.369C9.23503 183.777 8.85091 183.067 8.58398 182.24C8.31706 181.407 8.18359 180.473 8.18359 179.438V178.354C8.18359 177.318 8.32031 176.384 8.59375 175.551C8.86719 174.717 9.25781 174.008 9.76562 173.422C10.2799 172.829 10.8952 172.374 11.6113 172.055C12.334 171.736 13.1413 171.576 14.0332 171.576C15.1921 171.576 16.1719 171.791 16.9727 172.221C17.7734 172.644 18.3952 173.227 18.8379 173.969C19.2806 174.711 19.5475 175.564 19.6387 176.527H16.9531C16.901 175.928 16.7708 175.421 16.5625 175.004C16.3607 174.587 16.0547 174.271 15.6445 174.057C15.2409 173.835 14.7038 173.725 14.0332 173.725C13.5124 173.725 13.0534 173.822 12.6562 174.018C12.2656 174.213 11.9401 174.506 11.6797 174.896C11.4193 175.281 11.224 175.762 11.0938 176.342C10.9635 176.915 10.8984 177.579 10.8984 178.334V179.438C10.8984 180.16 10.957 180.808 11.0742 181.381C11.1914 181.954 11.3737 182.439 11.6211 182.836C11.8685 183.233 12.1875 183.536 12.5781 183.744C12.9688 183.952 13.4342 184.057 13.9746 184.057C14.6322 184.057 15.166 183.952 15.5762 183.744C15.9928 183.536 16.3086 183.23 16.5234 182.826C16.7448 182.423 16.8848 181.921 16.9434 181.322ZM27.334 183.754V178.881C27.334 178.523 27.2721 178.214 27.1484 177.953C27.0247 177.693 26.8359 177.491 26.582 177.348C26.3281 177.204 26.0059 177.133 25.6152 177.133C25.2702 177.133 24.9674 177.191 24.707 177.309C24.4531 177.426 24.2578 177.592 24.1211 177.807C23.9844 178.015 23.916 178.256 23.916 178.529H21.3281C21.3281 178.093 21.4323 177.68 21.6406 177.289C21.849 176.892 22.1452 176.54 22.5293 176.234C22.9199 175.922 23.3854 175.678 23.9258 175.502C24.4727 175.326 25.0846 175.238 25.7617 175.238C26.5625 175.238 27.2754 175.375 27.9004 175.648C28.5319 175.915 29.0267 176.319 29.3848 176.859C29.7493 177.4 29.9316 178.08 29.9316 178.9V183.51C29.9316 184.037 29.9642 184.49 30.0293 184.867C30.1009 185.238 30.2051 185.561 30.3418 185.834V186H27.7148C27.5911 185.733 27.4967 185.395 27.4316 184.984C27.3665 184.568 27.334 184.158 27.334 183.754ZM27.6953 179.564L27.7148 181.098H26.084C25.6803 181.098 25.3255 181.14 25.0195 181.225C24.7135 181.303 24.4629 181.42 24.2676 181.576C24.0723 181.726 23.9258 181.908 23.8281 182.123C23.7305 182.331 23.6816 182.569 23.6816 182.836C23.6816 183.096 23.7402 183.331 23.8574 183.539C23.9811 183.747 24.1569 183.913 24.3848 184.037C24.6191 184.154 24.8926 184.213 25.2051 184.213C25.6608 184.213 26.0579 184.122 26.3965 183.939C26.735 183.751 26.9987 183.523 27.1875 183.256C27.3763 182.989 27.4772 182.735 27.4902 182.494L28.2324 183.607C28.1413 183.874 28.0046 184.158 27.8223 184.457C27.64 184.757 27.4056 185.036 27.1191 185.297C26.8327 185.557 26.4876 185.772 26.084 185.941C25.6803 186.111 25.2116 186.195 24.6777 186.195C23.9941 186.195 23.3822 186.059 22.8418 185.785C22.3014 185.512 21.875 185.137 21.5625 184.662C21.25 184.187 21.0938 183.646 21.0938 183.041C21.0938 182.481 21.1979 181.986 21.4062 181.557C21.6146 181.127 21.9238 180.766 22.334 180.473C22.7441 180.173 23.252 179.949 23.8574 179.799C24.4694 179.643 25.1693 179.564 25.957 179.564H27.6953ZM38.5938 183.754V171H41.1914V186H38.8477L38.5938 183.754ZM31.8066 180.844V180.639C31.8066 179.831 31.8978 179.099 32.0801 178.441C32.2689 177.777 32.5423 177.208 32.9004 176.732C33.2585 176.257 33.6914 175.889 34.1992 175.629C34.7135 175.368 35.2962 175.238 35.9473 175.238C36.5788 175.238 37.1289 175.365 37.5977 175.619C38.0729 175.873 38.4766 176.234 38.8086 176.703C39.1471 177.172 39.4173 177.729 39.6191 178.373C39.821 179.011 39.9674 179.714 40.0586 180.482V181.039C39.9674 181.788 39.821 182.475 39.6191 183.1C39.4173 183.725 39.1471 184.271 38.8086 184.74C38.4766 185.202 38.0729 185.561 37.5977 185.814C37.1224 186.068 36.5658 186.195 35.9277 186.195C35.2832 186.195 34.7038 186.062 34.1895 185.795C33.6816 185.528 33.2487 185.154 32.8906 184.672C32.5391 184.19 32.2689 183.624 32.0801 182.973C31.8978 182.322 31.8066 181.612 31.8066 180.844ZM34.3945 180.639V180.844C34.3945 181.299 34.4336 181.726 34.5117 182.123C34.5898 182.52 34.7168 182.872 34.8926 183.178C35.0684 183.477 35.293 183.712 35.5664 183.881C35.8464 184.05 36.1849 184.135 36.582 184.135C37.0898 184.135 37.5065 184.024 37.832 183.803C38.1641 183.575 38.4212 183.266 38.6035 182.875C38.7858 182.478 38.903 182.032 38.9551 181.537V180.004C38.929 179.613 38.8607 179.252 38.75 178.92C38.6458 178.588 38.4961 178.301 38.3008 178.061C38.112 177.82 37.8776 177.631 37.5977 177.494C37.3177 177.357 36.9857 177.289 36.6016 177.289C36.2044 177.289 35.8659 177.377 35.5859 177.553C35.306 177.722 35.0781 177.96 34.9023 178.266C34.7266 178.572 34.5964 178.926 34.5117 179.33C34.4336 179.734 34.3945 180.17 34.3945 180.639ZM49.3457 183.754V178.881C49.3457 178.523 49.2839 178.214 49.1602 177.953C49.0365 177.693 48.8477 177.491 48.5938 177.348C48.3398 177.204 48.0176 177.133 47.627 177.133C47.2819 177.133 46.9792 177.191 46.7188 177.309C46.4648 177.426 46.2695 177.592 46.1328 177.807C45.9961 178.015 45.9277 178.256 45.9277 178.529H43.3398C43.3398 178.093 43.444 177.68 43.6523 177.289C43.8607 176.892 44.1569 176.54 44.541 176.234C44.9316 175.922 45.3971 175.678 45.9375 175.502C46.4844 175.326 47.0964 175.238 47.7734 175.238C48.5742 175.238 49.2871 175.375 49.9121 175.648C50.5436 175.915 51.0384 176.319 51.3965 176.859C51.7611 177.4 51.9434 178.08 51.9434 178.9V183.51C51.9434 184.037 51.9759 184.49 52.041 184.867C52.1126 185.238 52.2168 185.561 52.3535 185.834V186H49.7266C49.6029 185.733 49.5085 185.395 49.4434 184.984C49.3783 184.568 49.3457 184.158 49.3457 183.754ZM49.707 179.564L49.7266 181.098H48.0957C47.6921 181.098 47.3372 181.14 47.0312 181.225C46.7253 181.303 46.4746 181.42 46.2793 181.576C46.084 181.726 45.9375 181.908 45.8398 182.123C45.7422 182.331 45.6934 182.569 45.6934 182.836C45.6934 183.096 45.752 183.331 45.8691 183.539C45.9928 183.747 46.1686 183.913 46.3965 184.037C46.6309 184.154 46.9043 184.213 47.2168 184.213C47.6725 184.213 48.0697 184.122 48.4082 183.939C48.7467 183.751 49.0104 183.523 49.1992 183.256C49.388 182.989 49.4889 182.735 49.502 182.494L50.2441 183.607C50.153 183.874 50.0163 184.158 49.834 184.457C49.6517 184.757 49.4173 185.036 49.1309 185.297C48.8444 185.557 48.4993 185.772 48.0957 185.941C47.6921 186.111 47.2233 186.195 46.6895 186.195C46.0059 186.195 45.3939 186.059 44.8535 185.785C44.3132 185.512 43.8867 185.137 43.5742 184.662C43.2617 184.187 43.1055 183.646 43.1055 183.041C43.1055 182.481 43.2096 181.986 43.418 181.557C43.6263 181.127 43.9355 180.766 44.3457 180.473C44.7559 180.173 45.2637 179.949 45.8691 179.799C46.4811 179.643 47.181 179.564 47.9688 179.564H49.707ZM60.0781 183.109C60.0781 182.888 60.0195 182.689 59.9023 182.514C59.7852 182.338 59.5638 182.178 59.2383 182.035C58.9193 181.885 58.4505 181.745 57.832 181.615C57.2852 181.498 56.7806 181.352 56.3184 181.176C55.8561 181 55.459 180.788 55.127 180.541C54.7949 180.287 54.5345 179.991 54.3457 179.652C54.1634 179.307 54.0723 178.91 54.0723 178.461C54.0723 178.025 54.1667 177.615 54.3555 177.23C54.5443 176.84 54.8177 176.498 55.1758 176.205C55.5339 175.906 55.9701 175.671 56.4844 175.502C56.9987 175.326 57.5781 175.238 58.2227 175.238C59.1211 175.238 59.8926 175.385 60.5371 175.678C61.1882 175.971 61.6862 176.374 62.0312 176.889C62.3763 177.396 62.5488 177.969 62.5488 178.607H59.9707C59.9707 178.327 59.9056 178.074 59.7754 177.846C59.6517 177.618 59.4596 177.436 59.1992 177.299C58.9388 177.156 58.61 177.084 58.2129 177.084C57.8548 177.084 57.5521 177.143 57.3047 177.26C57.0638 177.377 56.8815 177.53 56.7578 177.719C56.6341 177.908 56.5723 178.116 56.5723 178.344C56.5723 178.513 56.6048 178.666 56.6699 178.803C56.7415 178.933 56.8555 179.053 57.0117 179.164C57.168 179.275 57.3796 179.376 57.6465 179.467C57.9199 179.558 58.2552 179.646 58.6523 179.73C59.4401 179.887 60.127 180.095 60.7129 180.355C61.3053 180.609 61.7676 180.948 62.0996 181.371C62.4316 181.794 62.5977 182.335 62.5977 182.992C62.5977 183.461 62.4967 183.891 62.2949 184.281C62.0931 184.665 61.8001 185.001 61.416 185.287C61.0319 185.574 60.5729 185.798 60.0391 185.961C59.5052 186.117 58.903 186.195 58.2324 186.195C57.2624 186.195 56.4421 186.023 55.7715 185.678C55.1009 185.326 54.5931 184.883 54.248 184.35C53.903 183.809 53.7305 183.249 53.7305 182.67H56.2012C56.2207 183.08 56.3314 183.409 56.5332 183.656C56.735 183.904 56.9889 184.083 57.2949 184.193C57.6074 184.298 57.9362 184.35 58.2812 184.35C58.6719 184.35 59.0007 184.298 59.2676 184.193C59.5345 184.083 59.7363 183.936 59.873 183.754C60.0098 183.565 60.0781 183.35 60.0781 183.109ZM69.5605 175.434V177.289H63.5059V175.434H69.5605ZM65.127 172.836H67.7148V182.953C67.7148 183.266 67.7572 183.507 67.8418 183.676C67.9264 183.845 68.0534 183.959 68.2227 184.018C68.3919 184.076 68.5938 184.105 68.8281 184.105C68.9974 184.105 69.1536 184.096 69.2969 184.076C69.4401 184.057 69.5605 184.037 69.6582 184.018L69.668 185.951C69.4531 186.023 69.209 186.081 68.9355 186.127C68.6686 186.173 68.3659 186.195 68.0273 186.195C67.4479 186.195 66.9401 186.098 66.5039 185.902C66.0677 185.701 65.7292 185.378 65.4883 184.936C65.2474 184.486 65.127 183.894 65.127 183.158V172.836ZM73.8574 177.592V186H71.2793V175.434H73.7207L73.8574 177.592ZM77.0703 175.365L77.0312 177.768C76.888 177.742 76.7253 177.722 76.543 177.709C76.3672 177.696 76.2012 177.689 76.0449 177.689C75.6478 177.689 75.2995 177.745 75 177.855C74.7005 177.96 74.4499 178.113 74.248 178.314C74.0527 178.516 73.903 178.764 73.7988 179.057C73.6947 179.343 73.6361 179.669 73.623 180.033L73.0664 179.965C73.0664 179.294 73.1348 178.673 73.2715 178.1C73.4082 177.527 73.6068 177.025 73.8672 176.596C74.1276 176.166 74.4531 175.834 74.8438 175.6C75.2409 175.359 75.6966 175.238 76.2109 175.238C76.3542 175.238 76.5072 175.251 76.6699 175.277C76.8392 175.297 76.9727 175.326 77.0703 175.365ZM83.9746 183.754V178.881C83.9746 178.523 83.9128 178.214 83.7891 177.953C83.6654 177.693 83.4766 177.491 83.2227 177.348C82.9688 177.204 82.6465 177.133 82.2559 177.133C81.9108 177.133 81.6081 177.191 81.3477 177.309C81.0938 177.426 80.8984 177.592 80.7617 177.807C80.625 178.015 80.5566 178.256 80.5566 178.529H77.9688C77.9688 178.093 78.0729 177.68 78.2812 177.289C78.4896 176.892 78.7858 176.54 79.1699 176.234C79.5605 175.922 80.026 175.678 80.5664 175.502C81.1133 175.326 81.7253 175.238 82.4023 175.238C83.2031 175.238 83.916 175.375 84.541 175.648C85.1725 175.915 85.6673 176.319 86.0254 176.859C86.39 177.4 86.5723 178.08 86.5723 178.9V183.51C86.5723 184.037 86.6048 184.49 86.6699 184.867C86.7415 185.238 86.8457 185.561 86.9824 185.834V186H84.3555C84.2318 185.733 84.1374 185.395 84.0723 184.984C84.0072 184.568 83.9746 184.158 83.9746 183.754ZM84.3359 179.564L84.3555 181.098H82.7246C82.321 181.098 81.9661 181.14 81.6602 181.225C81.3542 181.303 81.1035 181.42 80.9082 181.576C80.7129 181.726 80.5664 181.908 80.4688 182.123C80.3711 182.331 80.3223 182.569 80.3223 182.836C80.3223 183.096 80.3809 183.331 80.498 183.539C80.6217 183.747 80.7975 183.913 81.0254 184.037C81.2598 184.154 81.5332 184.213 81.8457 184.213C82.3014 184.213 82.6986 184.122 83.0371 183.939C83.3757 183.751 83.6393 183.523 83.8281 183.256C84.0169 182.989 84.1178 182.735 84.1309 182.494L84.873 183.607C84.7819 183.874 84.6452 184.158 84.4629 184.457C84.2806 184.757 84.0462 185.036 83.7598 185.297C83.4733 185.557 83.1283 185.772 82.7246 185.941C82.321 186.111 81.8522 186.195 81.3184 186.195C80.6348 186.195 80.0228 186.059 79.4824 185.785C78.9421 185.512 78.5156 185.137 78.2031 184.662C77.8906 184.187 77.7344 183.646 77.7344 183.041C77.7344 182.481 77.8385 181.986 78.0469 181.557C78.2552 181.127 78.5645 180.766 78.9746 180.473C79.3848 180.173 79.8926 179.949 80.498 179.799C81.11 179.643 81.8099 179.564 82.5977 179.564H84.3359ZM91.4746 177.592V186H88.8965V175.434H91.3379L91.4746 177.592ZM94.6875 175.365L94.6484 177.768C94.5052 177.742 94.3424 177.722 94.1602 177.709C93.9844 177.696 93.8184 177.689 93.6621 177.689C93.265 177.689 92.9167 177.745 92.6172 177.855C92.3177 177.96 92.0671 178.113 91.8652 178.314C91.6699 178.516 91.5202 178.764 91.416 179.057C91.3118 179.343 91.2533 179.669 91.2402 180.033L90.6836 179.965C90.6836 179.294 90.752 178.673 90.8887 178.1C91.0254 177.527 91.224 177.025 91.4844 176.596C91.7448 176.166 92.0703 175.834 92.4609 175.6C92.8581 175.359 93.3138 175.238 93.8281 175.238C93.9714 175.238 94.1243 175.251 94.2871 175.277C94.4564 175.297 94.5898 175.326 94.6875 175.365ZM102.451 171.781H104.775L108.662 182.484L112.539 171.781H114.873L109.59 186H107.725L102.451 171.781ZM101.279 171.781H103.555L103.965 181.615V186H101.279V171.781ZM113.76 171.781H116.045V186H113.359V181.615L113.76 171.781ZM123.33 186.195C122.529 186.195 121.81 186.065 121.172 185.805C120.534 185.544 119.99 185.183 119.541 184.721C119.098 184.252 118.757 183.708 118.516 183.09C118.281 182.465 118.164 181.794 118.164 181.078V180.688C118.164 179.874 118.281 179.135 118.516 178.471C118.75 177.8 119.082 177.224 119.512 176.742C119.941 176.26 120.456 175.889 121.055 175.629C121.654 175.368 122.314 175.238 123.037 175.238C123.786 175.238 124.447 175.365 125.02 175.619C125.592 175.867 126.071 176.218 126.455 176.674C126.839 177.13 127.129 177.676 127.324 178.314C127.52 178.946 127.617 179.646 127.617 180.414V181.498H119.336V179.721H125.078V179.525C125.065 179.115 124.987 178.741 124.844 178.402C124.701 178.057 124.479 177.784 124.18 177.582C123.88 177.374 123.493 177.27 123.018 177.27C122.633 177.27 122.298 177.354 122.012 177.523C121.732 177.686 121.497 177.921 121.309 178.227C121.126 178.526 120.99 178.884 120.898 179.301C120.807 179.717 120.762 180.18 120.762 180.688V181.078C120.762 181.521 120.82 181.931 120.938 182.309C121.061 182.686 121.24 183.015 121.475 183.295C121.715 183.568 122.002 183.783 122.334 183.939C122.673 184.089 123.057 184.164 123.486 184.164C124.027 184.164 124.515 184.06 124.951 183.852C125.394 183.637 125.778 183.321 126.104 182.904L127.402 184.252C127.181 184.577 126.882 184.89 126.504 185.189C126.133 185.489 125.684 185.733 125.156 185.922C124.629 186.104 124.02 186.195 123.33 186.195ZM135.684 183.754V171H138.281V186H135.938L135.684 183.754ZM128.896 180.844V180.639C128.896 179.831 128.988 179.099 129.17 178.441C129.359 177.777 129.632 177.208 129.99 176.732C130.348 176.257 130.781 175.889 131.289 175.629C131.803 175.368 132.386 175.238 133.037 175.238C133.669 175.238 134.219 175.365 134.688 175.619C135.163 175.873 135.566 176.234 135.898 176.703C136.237 177.172 136.507 177.729 136.709 178.373C136.911 179.011 137.057 179.714 137.148 180.482V181.039C137.057 181.788 136.911 182.475 136.709 183.1C136.507 183.725 136.237 184.271 135.898 184.74C135.566 185.202 135.163 185.561 134.688 185.814C134.212 186.068 133.656 186.195 133.018 186.195C132.373 186.195 131.794 186.062 131.279 185.795C130.771 185.528 130.339 185.154 129.98 184.672C129.629 184.19 129.359 183.624 129.17 182.973C128.988 182.322 128.896 181.612 128.896 180.844ZM131.484 180.639V180.844C131.484 181.299 131.523 181.726 131.602 182.123C131.68 182.52 131.807 182.872 131.982 183.178C132.158 183.477 132.383 183.712 132.656 183.881C132.936 184.05 133.275 184.135 133.672 184.135C134.18 184.135 134.596 184.024 134.922 183.803C135.254 183.575 135.511 183.266 135.693 182.875C135.876 182.478 135.993 182.032 136.045 181.537V180.004C136.019 179.613 135.951 179.252 135.84 178.92C135.736 178.588 135.586 178.301 135.391 178.061C135.202 177.82 134.967 177.631 134.688 177.494C134.408 177.357 134.076 177.289 133.691 177.289C133.294 177.289 132.956 177.377 132.676 177.553C132.396 177.722 132.168 177.96 131.992 178.266C131.816 178.572 131.686 178.926 131.602 179.33C131.523 179.734 131.484 180.17 131.484 180.639ZM143.35 175.434V186H140.762V175.434H143.35ZM140.586 172.67C140.586 172.286 140.716 171.967 140.977 171.713C141.243 171.459 141.602 171.332 142.051 171.332C142.5 171.332 142.855 171.459 143.115 171.713C143.382 171.967 143.516 172.286 143.516 172.67C143.516 173.048 143.382 173.363 143.115 173.617C142.855 173.871 142.5 173.998 142.051 173.998C141.602 173.998 141.243 173.871 140.977 173.617C140.716 173.363 140.586 173.048 140.586 172.67ZM152.148 183.754V171H154.746V186H152.402L152.148 183.754ZM145.361 180.844V180.639C145.361 179.831 145.452 179.099 145.635 178.441C145.824 177.777 146.097 177.208 146.455 176.732C146.813 176.257 147.246 175.889 147.754 175.629C148.268 175.368 148.851 175.238 149.502 175.238C150.133 175.238 150.684 175.365 151.152 175.619C151.628 175.873 152.031 176.234 152.363 176.703C152.702 177.172 152.972 177.729 153.174 178.373C153.376 179.011 153.522 179.714 153.613 180.482V181.039C153.522 181.788 153.376 182.475 153.174 183.1C152.972 183.725 152.702 184.271 152.363 184.74C152.031 185.202 151.628 185.561 151.152 185.814C150.677 186.068 150.12 186.195 149.482 186.195C148.838 186.195 148.258 186.062 147.744 185.795C147.236 185.528 146.803 185.154 146.445 184.672C146.094 184.19 145.824 183.624 145.635 182.973C145.452 182.322 145.361 181.612 145.361 180.844ZM147.949 180.639V180.844C147.949 181.299 147.988 181.726 148.066 182.123C148.145 182.52 148.271 182.872 148.447 183.178C148.623 183.477 148.848 183.712 149.121 183.881C149.401 184.05 149.74 184.135 150.137 184.135C150.645 184.135 151.061 184.024 151.387 183.803C151.719 183.575 151.976 183.266 152.158 182.875C152.34 182.478 152.458 182.032 152.51 181.537V180.004C152.484 179.613 152.415 179.252 152.305 178.92C152.201 178.588 152.051 178.301 151.855 178.061C151.667 177.82 151.432 177.631 151.152 177.494C150.872 177.357 150.54 177.289 150.156 177.289C149.759 177.289 149.421 177.377 149.141 177.553C148.861 177.722 148.633 177.96 148.457 178.266C148.281 178.572 148.151 178.926 148.066 179.33C147.988 179.734 147.949 180.17 147.949 180.639ZM162.9 183.754V178.881C162.9 178.523 162.839 178.214 162.715 177.953C162.591 177.693 162.402 177.491 162.148 177.348C161.895 177.204 161.572 177.133 161.182 177.133C160.837 177.133 160.534 177.191 160.273 177.309C160.02 177.426 159.824 177.592 159.688 177.807C159.551 178.015 159.482 178.256 159.482 178.529H156.895C156.895 178.093 156.999 177.68 157.207 177.289C157.415 176.892 157.712 176.54 158.096 176.234C158.486 175.922 158.952 175.678 159.492 175.502C160.039 175.326 160.651 175.238 161.328 175.238C162.129 175.238 162.842 175.375 163.467 175.648C164.098 175.915 164.593 176.319 164.951 176.859C165.316 177.4 165.498 178.08 165.498 178.9V183.51C165.498 184.037 165.531 184.49 165.596 184.867C165.667 185.238 165.771 185.561 165.908 185.834V186H163.281C163.158 185.733 163.063 185.395 162.998 184.984C162.933 184.568 162.9 184.158 162.9 183.754ZM163.262 179.564L163.281 181.098H161.65C161.247 181.098 160.892 181.14 160.586 181.225C160.28 181.303 160.029 181.42 159.834 181.576C159.639 181.726 159.492 181.908 159.395 182.123C159.297 182.331 159.248 182.569 159.248 182.836C159.248 183.096 159.307 183.331 159.424 183.539C159.548 183.747 159.723 183.913 159.951 184.037C160.186 184.154 160.459 184.213 160.771 184.213C161.227 184.213 161.624 184.122 161.963 183.939C162.301 183.751 162.565 183.523 162.754 183.256C162.943 182.989 163.044 182.735 163.057 182.494L163.799 183.607C163.708 183.874 163.571 184.158 163.389 184.457C163.206 184.757 162.972 185.036 162.686 185.297C162.399 185.557 162.054 185.772 161.65 185.941C161.247 186.111 160.778 186.195 160.244 186.195C159.561 186.195 158.949 186.059 158.408 185.785C157.868 185.512 157.441 185.137 157.129 184.662C156.816 184.187 156.66 183.646 156.66 183.041C156.66 182.481 156.764 181.986 156.973 181.557C157.181 181.127 157.49 180.766 157.9 180.473C158.311 180.173 158.818 179.949 159.424 179.799C160.036 179.643 160.736 179.564 161.523 179.564H163.262ZM178.467 180.814H174.805V178.705H178.467C179.066 178.705 179.551 178.607 179.922 178.412C180.299 178.21 180.576 177.937 180.752 177.592C180.928 177.24 181.016 176.84 181.016 176.391C181.016 175.954 180.928 175.548 180.752 175.17C180.576 174.792 180.299 174.486 179.922 174.252C179.551 174.018 179.066 173.9 178.467 173.9H175.684V186H172.998V171.781H178.467C179.574 171.781 180.518 171.98 181.299 172.377C182.087 172.768 182.686 173.311 183.096 174.008C183.512 174.698 183.721 175.486 183.721 176.371C183.721 177.289 183.512 178.08 183.096 178.744C182.686 179.408 182.087 179.919 181.299 180.277C180.518 180.635 179.574 180.814 178.467 180.814ZM188.213 177.592V186H185.635V175.434H188.076L188.213 177.592ZM191.426 175.365L191.387 177.768C191.243 177.742 191.081 177.722 190.898 177.709C190.723 177.696 190.557 177.689 190.4 177.689C190.003 177.689 189.655 177.745 189.355 177.855C189.056 177.96 188.805 178.113 188.604 178.314C188.408 178.516 188.258 178.764 188.154 179.057C188.05 179.343 187.992 179.669 187.979 180.033L187.422 179.965C187.422 179.294 187.49 178.673 187.627 178.1C187.764 177.527 187.962 177.025 188.223 176.596C188.483 176.166 188.809 175.834 189.199 175.6C189.596 175.359 190.052 175.238 190.566 175.238C190.71 175.238 190.863 175.251 191.025 175.277C191.195 175.297 191.328 175.326 191.426 175.365ZM192.109 180.824V180.619C192.109 179.844 192.22 179.132 192.441 178.48C192.663 177.823 192.985 177.253 193.408 176.771C193.831 176.29 194.349 175.915 194.961 175.648C195.573 175.375 196.27 175.238 197.051 175.238C197.845 175.238 198.548 175.375 199.16 175.648C199.779 175.915 200.299 176.29 200.723 176.771C201.146 177.253 201.468 177.823 201.689 178.48C201.911 179.132 202.021 179.844 202.021 180.619V180.824C202.021 181.592 201.911 182.305 201.689 182.963C201.468 183.614 201.146 184.184 200.723 184.672C200.299 185.154 199.782 185.528 199.17 185.795C198.558 186.062 197.858 186.195 197.07 186.195C196.289 186.195 195.589 186.062 194.971 185.795C194.352 185.528 193.831 185.154 193.408 184.672C192.985 184.184 192.663 183.614 192.441 182.963C192.22 182.305 192.109 181.592 192.109 180.824ZM194.688 180.619V180.824C194.688 181.286 194.733 181.719 194.824 182.123C194.915 182.527 195.055 182.882 195.244 183.188C195.433 183.493 195.677 183.734 195.977 183.91C196.283 184.079 196.647 184.164 197.07 184.164C197.487 184.164 197.845 184.079 198.145 183.91C198.444 183.734 198.688 183.493 198.877 183.188C199.072 182.882 199.215 182.527 199.307 182.123C199.398 181.719 199.443 181.286 199.443 180.824V180.619C199.443 180.163 199.398 179.737 199.307 179.34C199.215 178.936 199.072 178.581 198.877 178.275C198.688 177.963 198.441 177.719 198.135 177.543C197.835 177.361 197.474 177.27 197.051 177.27C196.634 177.27 196.276 177.361 195.977 177.543C195.677 177.719 195.433 177.963 195.244 178.275C195.055 178.581 194.915 178.936 194.824 179.34C194.733 179.737 194.688 180.163 194.688 180.619ZM208.896 175.434V177.289H202.842V175.434H208.896ZM204.463 172.836H207.051V182.953C207.051 183.266 207.093 183.507 207.178 183.676C207.262 183.845 207.389 183.959 207.559 184.018C207.728 184.076 207.93 184.105 208.164 184.105C208.333 184.105 208.49 184.096 208.633 184.076C208.776 184.057 208.896 184.037 208.994 184.018L209.004 185.951C208.789 186.023 208.545 186.081 208.271 186.127C208.005 186.173 207.702 186.195 207.363 186.195C206.784 186.195 206.276 186.098 205.84 185.902C205.404 185.701 205.065 185.378 204.824 184.936C204.583 184.486 204.463 183.894 204.463 183.158V172.836ZM215.361 186.195C214.561 186.195 213.841 186.065 213.203 185.805C212.565 185.544 212.021 185.183 211.572 184.721C211.13 184.252 210.788 183.708 210.547 183.09C210.312 182.465 210.195 181.794 210.195 181.078V180.688C210.195 179.874 210.312 179.135 210.547 178.471C210.781 177.8 211.113 177.224 211.543 176.742C211.973 176.26 212.487 175.889 213.086 175.629C213.685 175.368 214.346 175.238 215.068 175.238C215.817 175.238 216.478 175.365 217.051 175.619C217.624 175.867 218.102 176.218 218.486 176.674C218.87 177.13 219.16 177.676 219.355 178.314C219.551 178.946 219.648 179.646 219.648 180.414V181.498H211.367V179.721H217.109V179.525C217.096 179.115 217.018 178.741 216.875 178.402C216.732 178.057 216.51 177.784 216.211 177.582C215.911 177.374 215.524 177.27 215.049 177.27C214.665 177.27 214.329 177.354 214.043 177.523C213.763 177.686 213.529 177.921 213.34 178.227C213.158 178.526 213.021 178.884 212.93 179.301C212.839 179.717 212.793 180.18 212.793 180.688V181.078C212.793 181.521 212.852 181.931 212.969 182.309C213.092 182.686 213.271 183.015 213.506 183.295C213.747 183.568 214.033 183.783 214.365 183.939C214.704 184.089 215.088 184.164 215.518 184.164C216.058 184.164 216.546 184.06 216.982 183.852C217.425 183.637 217.809 183.321 218.135 182.904L219.434 184.252C219.212 184.577 218.913 184.89 218.535 185.189C218.164 185.489 217.715 185.733 217.188 185.922C216.66 186.104 216.051 186.195 215.361 186.195ZM226.377 175.434V177.289H220.322V175.434H226.377ZM221.943 172.836H224.531V182.953C224.531 183.266 224.574 183.507 224.658 183.676C224.743 183.845 224.87 183.959 225.039 184.018C225.208 184.076 225.41 184.105 225.645 184.105C225.814 184.105 225.97 184.096 226.113 184.076C226.257 184.057 226.377 184.037 226.475 184.018L226.484 185.951C226.27 186.023 226.025 186.081 225.752 186.127C225.485 186.173 225.182 186.195 224.844 186.195C224.264 186.195 223.757 186.098 223.32 185.902C222.884 185.701 222.546 185.378 222.305 184.936C222.064 184.486 221.943 183.894 221.943 183.158V172.836ZM230.83 175.434V186H228.242V175.434H230.83ZM228.066 172.67C228.066 172.286 228.197 171.967 228.457 171.713C228.724 171.459 229.082 171.332 229.531 171.332C229.98 171.332 230.335 171.459 230.596 171.713C230.863 171.967 230.996 172.286 230.996 172.67C230.996 173.048 230.863 173.363 230.596 173.617C230.335 173.871 229.98 173.998 229.531 173.998C229.082 173.998 228.724 173.871 228.457 173.617C228.197 173.363 228.066 173.048 228.066 172.67ZM236.797 184.047L239.258 175.434H241.953L238.33 186H236.689L236.797 184.047ZM235 175.434L237.49 184.066L237.578 186H235.928L232.295 175.434H235ZM248.975 183.754V178.881C248.975 178.523 248.913 178.214 248.789 177.953C248.665 177.693 248.477 177.491 248.223 177.348C247.969 177.204 247.646 177.133 247.256 177.133C246.911 177.133 246.608 177.191 246.348 177.309C246.094 177.426 245.898 177.592 245.762 177.807C245.625 178.015 245.557 178.256 245.557 178.529H242.969C242.969 178.093 243.073 177.68 243.281 177.289C243.49 176.892 243.786 176.54 244.17 176.234C244.561 175.922 245.026 175.678 245.566 175.502C246.113 175.326 246.725 175.238 247.402 175.238C248.203 175.238 248.916 175.375 249.541 175.648C250.173 175.915 250.667 176.319 251.025 176.859C251.39 177.4 251.572 178.08 251.572 178.9V183.51C251.572 184.037 251.605 184.49 251.67 184.867C251.742 185.238 251.846 185.561 251.982 185.834V186H249.355C249.232 185.733 249.137 185.395 249.072 184.984C249.007 184.568 248.975 184.158 248.975 183.754ZM249.336 179.564L249.355 181.098H247.725C247.321 181.098 246.966 181.14 246.66 181.225C246.354 181.303 246.104 181.42 245.908 181.576C245.713 181.726 245.566 181.908 245.469 182.123C245.371 182.331 245.322 182.569 245.322 182.836C245.322 183.096 245.381 183.331 245.498 183.539C245.622 183.747 245.798 183.913 246.025 184.037C246.26 184.154 246.533 184.213 246.846 184.213C247.301 184.213 247.699 184.122 248.037 183.939C248.376 183.751 248.639 183.523 248.828 183.256C249.017 182.989 249.118 182.735 249.131 182.494L249.873 183.607C249.782 183.874 249.645 184.158 249.463 184.457C249.281 184.757 249.046 185.036 248.76 185.297C248.473 185.557 248.128 185.772 247.725 185.941C247.321 186.111 246.852 186.195 246.318 186.195C245.635 186.195 245.023 186.059 244.482 185.785C243.942 185.512 243.516 185.137 243.203 184.662C242.891 184.187 242.734 183.646 242.734 183.041C242.734 182.481 242.839 181.986 243.047 181.557C243.255 181.127 243.564 180.766 243.975 180.473C244.385 180.173 244.893 179.949 245.498 179.799C246.11 179.643 246.81 179.564 247.598 179.564H249.336Z" fill="#555347"/>
<rect x="56" width="150" height="150" rx="75" fill="#555347"/>
<path d="M105.5 40C105.5 36.4101 108.41 33.5 112 33.5H137.741C139.522 33.5 141.224 34.2302 142.451 35.5201L148.45 41.8271L154.287 48.137C155.398 49.3383 156.015 50.9144 156.015 52.5508V96.8405C156.015 100.43 153.105 103.34 149.515 103.34H112C108.41 103.34 105.5 100.43 105.5 96.8405V40Z" fill="#555347" stroke="#FCFCFC" stroke-width="7"/>
<rect x="115.804" y="47.0245" width="13.3436" height="5.40955" rx="2.70478" fill="#FCFCFC"/>
<rect x="115.804" y="57.483" width="29.2116" height="5.40955" rx="2.70478" fill="#FCFCFC"/>
<rect x="115.804" y="68.3021" width="29.2116" height="5.40955" rx="2.70478" fill="#FCFCFC"/>
<rect x="131.672" y="47.0245" width="5.40955" height="5.40955" rx="2.70478" fill="#FCFCFC"/>
<rect x="139.606" y="47.0245" width="5.40955" height="5.40955" rx="2.70478" fill="#FCFCFC"/>
<rect x="137.249" y="79.9724" width="36.2515" height="36.2515" rx="18.1258" fill="#555347" stroke="#FCFCFC" stroke-width="7"/>
<rect x="148.058" y="97.1323" width="14.6326" height="1.93181" rx="0.965906" fill="#FCFCFC" stroke="#FCFCFC" stroke-width="1.93181"/>
<rect x="0.967771" y="-0.964743" width="14.6259" height="1.93252" rx="0.966258" transform="matrix(0.00156751 -0.999999 0.999999 0.00156637 155.36 106.379)" fill="#FCFCFC" stroke="#FCFCFC" stroke-width="1.93252"/>
</svg>
