<svg width="43" height="34" viewBox="0 0 43 34" fill="none" xmlns="http://www.w3.org/2000/svg">
<rect width="2.79741" height="1.82306" rx="0.911532" transform="matrix(0.900276 0.43532 -0.479192 0.87771 5.6709 29.0889)" fill="#555347"/>
<rect width="4.14114" height="1.80083" rx="0.900417" transform="matrix(0.992864 0.119254 -0.134385 0.990929 9.90832 31.2664)" fill="#555347"/>
<rect width="3.99259" height="1.82897" rx="0.914483" transform="matrix(0.87306 -0.487613 0.533403 0.845861 15.5976 31.4855)" fill="#555347"/>
<rect width="3.94623" height="1.85121" rx="0.925604" transform="matrix(0.757315 -0.65305 0.697598 0.716489 20.7588 28.5178)" fill="#555347"/>
<rect width="4.0253" height="1.81295" rx="0.906476" transform="matrix(0.944177 -0.329439 0.366538 0.930403 25.8245 24.5684)" fill="#555347"/>
<rect width="4.05253" height="1.79941" rx="0.899705" transform="matrix(0.998336 0.0576716 -0.0650863 0.99788 32.3453 23.692)" fill="#555347"/>
<rect width="3.93493" height="1.85655" rx="0.928275" transform="matrix(0.725608 -0.688108 0.730834 0.682556 38.0584 24.151)" fill="#555347"/>
<rect width="3.87772" height="1.88313" rx="0.941565" transform="matrix(-0.531193 -0.847251 0.874258 -0.485461 41.074 20.246)" fill="#555347"/>
<rect width="2.913" height="1.81893" rx="0.909464" transform="matrix(-0.918619 -0.395144 0.436875 -0.899522 37.5803 15.9552)" fill="#555347"/>
<path d="M0.5 19.2498C0.5 16.9982 2.3253 15.1729 4.57692 15.1729H5.01768C7.2693 15.1729 9.09459 16.9982 9.09459 19.2498C9.09459 19.9506 8.91397 20.6395 8.57014 21.2502L4.7973 27.9506L1.02445 21.2502C0.680627 20.6395 0.5 19.9506 0.5 19.2498Z" fill="white" stroke="#555347"/>
<rect x="3.6982" y="18.1828" width="2.59797" height="2.38606" rx="1.19303" fill="white" stroke="#555347"/>
<path d="M29.2838 4.57692C29.2838 2.3253 31.1091 0.5 33.3607 0.5H33.8015C36.0531 0.5 37.8784 2.3253 37.8784 4.57692C37.8784 5.27768 37.6977 5.96661 37.3539 6.57723L33.5811 13.2776L29.8082 6.57723C29.4644 5.96661 29.2838 5.27768 29.2838 4.57692Z" fill="white" stroke="#555347"/>
<rect x="32.482" y="3.50983" width="2.59797" height="2.38606" rx="1.19303" fill="white" stroke="#555347"/>
</svg>
