<svg width="163" height="191" viewBox="0 0 163 191" fill="none" xmlns="http://www.w3.org/2000/svg">
<rect x="7" width="150" height="150" rx="75" fill="#555347"/>
<rect width="6.25927" height="4.15509" rx="2.07754" transform="matrix(0.89474 0.446588 -0.467541 0.883971 46.6108 103.772)" fill="white"/>
<rect width="9.2132" height="4.13141" rx="2.0657" transform="matrix(0.992402 0.12304 -0.130261 0.99148 56.0337 108.77)" fill="white"/>
<rect width="8.94745" height="4.1614" rx="2.0807" transform="matrix(0.86634 -0.499455 0.521327 0.853357 68.6855 109.273)" fill="white"/>
<rect width="8.89721" height="4.18529" rx="2.09264" transform="matrix(0.746954 -0.664876 0.686157 0.727453 80.1626 102.461)" fill="white"/>
<rect width="8.98308" height="4.1443" rx="2.07215" transform="matrix(0.940839 -0.338855 0.356568 0.934269 91.4272 93.3952)" fill="white"/>
<rect width="9.01285" height="4.1299" rx="2.06495" transform="matrix(0.998227 0.059524 -0.0630622 0.99801 105.928 91.3836)" fill="white"/>
<rect width="8.88501" height="4.19105" rx="2.09552" transform="matrix(0.714611 -0.699522 0.719932 0.694045 118.633 92.437)" fill="white"/>
<rect width="8.82354" height="4.21983" rx="2.10992" transform="matrix(-0.519129 -0.854696 0.867588 -0.497284 125.339 83.4734)" fill="white"/>
<rect width="6.51086" height="4.15067" rx="2.07534" transform="matrix(-0.913957 -0.40581 0.425739 -0.904846 117.57 73.6243)" fill="white"/>
<path d="M35 81.2469C35 75.9761 39.3723 71.6808 44.6681 71.6808C49.9638 71.6808 54.3361 75.9761 54.3361 81.2469C54.3361 82.8476 53.9344 84.4227 53.1679 85.8279L44.6681 101.41L36.1682 85.8279C35.4017 84.4227 35 82.8476 35 81.2469Z" fill="#555347" stroke="white" stroke-width="2"/>
<rect x="42.1118" y="78.5897" width="6.00104" height="5.7725" rx="2.88625" fill="#555347" stroke="white" stroke-width="2"/>
<path d="M99.0083 47.5661C99.0083 42.2953 103.381 38 108.676 38C113.972 38 118.344 42.2953 118.344 47.5661C118.344 49.1668 117.943 50.7419 117.176 52.1471L108.676 67.729L100.177 52.1471C99.41 50.7419 99.0083 49.1668 99.0083 47.5661Z" fill="#555347" stroke="white" stroke-width="2"/>
<rect x="106.12" y="44.9089" width="6.00104" height="5.7725" rx="2.88625" fill="#555347" stroke="white" stroke-width="2"/>
<path d="M8.05273 186H4.98633L5.00586 183.891H8.05273C8.87956 183.891 9.57292 183.708 10.1328 183.344C10.6927 182.973 11.1159 182.442 11.4023 181.752C11.6888 181.055 11.832 180.222 11.832 179.252V178.52C11.832 177.771 11.7507 177.11 11.5879 176.537C11.4251 175.964 11.1842 175.482 10.8652 175.092C10.5527 174.701 10.1654 174.405 9.70312 174.203C9.24089 174.001 8.71029 173.9 8.11133 173.9H4.92773V171.781H8.11133C9.06185 171.781 9.92773 171.941 10.709 172.26C11.4967 172.579 12.1771 173.038 12.75 173.637C13.3294 174.229 13.7721 174.939 14.0781 175.766C14.3906 176.592 14.5469 177.517 14.5469 178.539V179.252C14.5469 180.268 14.3906 181.192 14.0781 182.025C13.7721 182.852 13.3294 183.562 12.75 184.154C12.1771 184.747 11.4935 185.202 10.6992 185.521C9.90495 185.84 9.02279 186 8.05273 186ZM6.49023 171.781V186H3.80469V171.781H6.49023ZM21.3828 186.195C20.582 186.195 19.8626 186.065 19.2246 185.805C18.5866 185.544 18.043 185.183 17.5938 184.721C17.151 184.252 16.8092 183.708 16.5684 183.09C16.334 182.465 16.2168 181.794 16.2168 181.078V180.688C16.2168 179.874 16.334 179.135 16.5684 178.471C16.8027 177.8 17.1348 177.224 17.5645 176.742C17.9941 176.26 18.5085 175.889 19.1074 175.629C19.7064 175.368 20.3672 175.238 21.0898 175.238C21.8385 175.238 22.4993 175.365 23.0723 175.619C23.6452 175.867 24.1237 176.218 24.5078 176.674C24.8919 177.13 25.1816 177.676 25.377 178.314C25.5723 178.946 25.6699 179.646 25.6699 180.414V181.498H17.3887V179.721H23.1309V179.525C23.1178 179.115 23.0397 178.741 22.8965 178.402C22.7533 178.057 22.5319 177.784 22.2324 177.582C21.9329 177.374 21.5456 177.27 21.0703 177.27C20.6862 177.27 20.3509 177.354 20.0645 177.523C19.7845 177.686 19.5501 177.921 19.3613 178.227C19.179 178.526 19.0423 178.884 18.9512 179.301C18.86 179.717 18.8145 180.18 18.8145 180.688V181.078C18.8145 181.521 18.873 181.931 18.9902 182.309C19.1139 182.686 19.293 183.015 19.5273 183.295C19.7682 183.568 20.0547 183.783 20.3867 183.939C20.7253 184.089 21.1094 184.164 21.5391 184.164C22.0794 184.164 22.5677 184.06 23.0039 183.852C23.4466 183.637 23.8307 183.321 24.1562 182.904L25.4551 184.252C25.2337 184.577 24.9342 184.89 24.5566 185.189C24.1855 185.489 23.7363 185.733 23.209 185.922C22.6816 186.104 22.0729 186.195 21.3828 186.195ZM30.6602 186H28.0625V174.848C28.0625 173.975 28.2383 173.24 28.5898 172.641C28.9479 172.035 29.459 171.576 30.123 171.264C30.7936 170.951 31.5911 170.795 32.5156 170.795C33.056 170.795 33.5768 170.85 34.0781 170.961C34.5859 171.065 35.1068 171.202 35.6406 171.371L35.2598 173.461C34.9147 173.35 34.5371 173.246 34.127 173.148C33.7233 173.051 33.2448 173.002 32.6914 173.002C32.0078 173.002 31.4967 173.158 31.1582 173.471C30.8262 173.783 30.6602 174.242 30.6602 174.848V186ZM32.7695 175.434V177.289H26.4707V175.434H32.7695ZM36.8516 175.434V186H34.2637V175.434H36.8516ZM41.8809 177.689V186H39.3027V175.434H41.7246L41.8809 177.689ZM41.4707 180.336H40.709C40.7155 179.568 40.8197 178.871 41.0215 178.246C41.2233 177.621 41.5065 177.084 41.8711 176.635C42.2422 176.186 42.6816 175.84 43.1895 175.6C43.6973 175.359 44.2637 175.238 44.8887 175.238C45.3965 175.238 45.8555 175.31 46.2656 175.453C46.6758 175.596 47.0273 175.824 47.3203 176.137C47.6198 176.449 47.8477 176.859 48.0039 177.367C48.1667 177.868 48.248 178.487 48.248 179.223V186H45.6504V179.203C45.6504 178.721 45.5788 178.34 45.4355 178.061C45.2988 177.781 45.097 177.582 44.8301 177.465C44.5697 177.348 44.2474 177.289 43.8633 177.289C43.4661 177.289 43.1178 177.37 42.8184 177.533C42.5254 177.689 42.278 177.908 42.0762 178.188C41.8809 178.467 41.7311 178.79 41.627 179.154C41.5228 179.519 41.4707 179.913 41.4707 180.336ZM53.2578 175.434V186H50.6699V175.434H53.2578ZM50.4941 172.67C50.4941 172.286 50.6243 171.967 50.8848 171.713C51.1517 171.459 51.5098 171.332 51.959 171.332C52.4082 171.332 52.763 171.459 53.0234 171.713C53.2904 171.967 53.4238 172.286 53.4238 172.67C53.4238 173.048 53.2904 173.363 53.0234 173.617C52.763 173.871 52.4082 173.998 51.959 173.998C51.5098 173.998 51.1517 173.871 50.8848 173.617C50.6243 173.363 50.4941 173.048 50.4941 172.67ZM60.0547 184.164C60.4193 184.164 60.7448 184.092 61.0312 183.949C61.3177 183.806 61.5456 183.604 61.7148 183.344C61.8906 183.083 61.985 182.781 61.998 182.436H64.4297C64.4167 183.152 64.2148 183.793 63.8242 184.359C63.4336 184.926 62.9128 185.375 62.2617 185.707C61.6172 186.033 60.8945 186.195 60.0938 186.195C59.2799 186.195 58.5703 186.059 57.9648 185.785C57.3594 185.512 56.8548 185.131 56.4512 184.643C56.054 184.154 55.7546 183.588 55.5527 182.943C55.3574 182.299 55.2598 181.609 55.2598 180.873V180.561C55.2598 179.825 55.3574 179.135 55.5527 178.49C55.7546 177.846 56.054 177.279 56.4512 176.791C56.8548 176.303 57.3594 175.922 57.9648 175.648C58.5703 175.375 59.2767 175.238 60.084 175.238C60.9368 175.238 61.6855 175.404 62.3301 175.736C62.9811 176.068 63.4889 176.537 63.8535 177.143C64.2246 177.748 64.4167 178.461 64.4297 179.281H61.998C61.985 178.904 61.9004 178.565 61.7441 178.266C61.5879 177.966 61.3665 177.725 61.0801 177.543C60.7936 177.361 60.4453 177.27 60.0352 177.27C59.599 177.27 59.2344 177.361 58.9414 177.543C58.6549 177.725 58.4303 177.976 58.2676 178.295C58.1113 178.607 58.0007 178.959 57.9355 179.35C57.877 179.734 57.8477 180.137 57.8477 180.561V180.873C57.8477 181.303 57.877 181.713 57.9355 182.104C58.0007 182.494 58.1113 182.846 58.2676 183.158C58.4303 183.464 58.6549 183.708 58.9414 183.891C59.2344 184.073 59.6055 184.164 60.0547 184.164ZM59.0098 186H60.9336L60.8262 186.557C61.1973 186.622 61.5358 186.778 61.8418 187.025C62.1478 187.273 62.3008 187.68 62.3008 188.246C62.3008 188.585 62.2292 188.891 62.0859 189.164C61.9492 189.438 61.7409 189.672 61.4609 189.867C61.181 190.069 60.8327 190.222 60.416 190.326C60.0059 190.43 59.5273 190.482 58.9805 190.482L58.9121 189.037C59.1465 189.037 59.3548 189.008 59.5371 188.949C59.7259 188.891 59.8724 188.796 59.9766 188.666C60.0872 188.542 60.1426 188.383 60.1426 188.188C60.1426 187.992 60.0938 187.839 59.9961 187.729C59.8984 187.624 59.7422 187.543 59.5273 187.484C59.319 187.432 59.0456 187.396 58.707 187.377L59.0098 186ZM71.9688 183.754V178.881C71.9688 178.523 71.9069 178.214 71.7832 177.953C71.6595 177.693 71.4707 177.491 71.2168 177.348C70.9629 177.204 70.6406 177.133 70.25 177.133C69.9049 177.133 69.6022 177.191 69.3418 177.309C69.0879 177.426 68.8926 177.592 68.7559 177.807C68.6191 178.015 68.5508 178.256 68.5508 178.529H65.9629C65.9629 178.093 66.0671 177.68 66.2754 177.289C66.4837 176.892 66.7799 176.54 67.1641 176.234C67.5547 175.922 68.0202 175.678 68.5605 175.502C69.1074 175.326 69.7194 175.238 70.3965 175.238C71.1973 175.238 71.9102 175.375 72.5352 175.648C73.1667 175.915 73.6615 176.319 74.0195 176.859C74.3841 177.4 74.5664 178.08 74.5664 178.9V183.51C74.5664 184.037 74.599 184.49 74.6641 184.867C74.7357 185.238 74.8398 185.561 74.9766 185.834V186H72.3496C72.2259 185.733 72.1315 185.395 72.0664 184.984C72.0013 184.568 71.9688 184.158 71.9688 183.754ZM72.3301 179.564L72.3496 181.098H70.7188C70.3151 181.098 69.9603 181.14 69.6543 181.225C69.3483 181.303 69.0977 181.42 68.9023 181.576C68.707 181.726 68.5605 181.908 68.4629 182.123C68.3652 182.331 68.3164 182.569 68.3164 182.836C68.3164 183.096 68.375 183.331 68.4922 183.539C68.6159 183.747 68.7917 183.913 69.0195 184.037C69.2539 184.154 69.5273 184.213 69.8398 184.213C70.2956 184.213 70.6927 184.122 71.0312 183.939C71.3698 183.751 71.6335 183.523 71.8223 183.256C72.0111 182.989 72.112 182.735 72.125 182.494L72.8672 183.607C72.776 183.874 72.6393 184.158 72.457 184.457C72.2747 184.757 72.0404 185.036 71.7539 185.297C71.4674 185.557 71.1224 185.772 70.7188 185.941C70.3151 186.111 69.8464 186.195 69.3125 186.195C68.6289 186.195 68.0169 186.059 67.4766 185.785C66.9362 185.512 66.5098 185.137 66.1973 184.662C65.8848 184.187 65.7285 183.646 65.7285 183.041C65.7285 182.481 65.8327 181.986 66.041 181.557C66.2493 181.127 66.5586 180.766 66.9688 180.473C67.3789 180.173 67.8867 179.949 68.4922 179.799C69.1042 179.643 69.804 179.564 70.5918 179.564H72.3301ZM72.5254 171.088L74.0586 171.195C74.0586 171.671 73.9609 172.1 73.7656 172.484C73.5768 172.862 73.3197 173.161 72.9941 173.383C72.6686 173.604 72.2943 173.715 71.8711 173.715C71.5586 173.715 71.2884 173.673 71.0605 173.588C70.8392 173.503 70.6341 173.402 70.4453 173.285C70.263 173.168 70.0742 173.067 69.8789 172.982C69.6836 172.891 69.4557 172.846 69.1953 172.846C68.9609 172.846 68.7591 172.934 68.5898 173.109C68.4271 173.285 68.3457 173.523 68.3457 173.822L66.8027 173.744C66.8027 173.275 66.8971 172.849 67.0859 172.465C67.2747 172.081 67.5319 171.775 67.8574 171.547C68.1895 171.319 68.5671 171.205 68.9902 171.205C69.2572 171.205 69.498 171.247 69.7129 171.332C69.9342 171.417 70.1458 171.518 70.3477 171.635C70.5495 171.745 70.7546 171.846 70.9629 171.938C71.1777 172.022 71.4089 172.064 71.6562 172.064C71.8971 172.064 72.1022 171.977 72.2715 171.801C72.4408 171.625 72.5254 171.387 72.5254 171.088ZM76.4316 180.824V180.619C76.4316 179.844 76.5423 179.132 76.7637 178.48C76.985 177.823 77.3073 177.253 77.7305 176.771C78.1536 176.29 78.6712 175.915 79.2832 175.648C79.8952 175.375 80.5918 175.238 81.373 175.238C82.1673 175.238 82.8704 175.375 83.4824 175.648C84.1009 175.915 84.6217 176.29 85.0449 176.771C85.4681 177.253 85.7904 177.823 86.0117 178.48C86.2331 179.132 86.3438 179.844 86.3438 180.619V180.824C86.3438 181.592 86.2331 182.305 86.0117 182.963C85.7904 183.614 85.4681 184.184 85.0449 184.672C84.6217 185.154 84.1042 185.528 83.4922 185.795C82.8802 186.062 82.1803 186.195 81.3926 186.195C80.6113 186.195 79.9115 186.062 79.293 185.795C78.6745 185.528 78.1536 185.154 77.7305 184.672C77.3073 184.184 76.985 183.614 76.7637 182.963C76.5423 182.305 76.4316 181.592 76.4316 180.824ZM79.0098 180.619V180.824C79.0098 181.286 79.0553 181.719 79.1465 182.123C79.2376 182.527 79.3776 182.882 79.5664 183.188C79.7552 183.493 79.9993 183.734 80.2988 183.91C80.6048 184.079 80.9694 184.164 81.3926 184.164C81.8092 184.164 82.1673 184.079 82.4668 183.91C82.7663 183.734 83.0104 183.493 83.1992 183.188C83.3945 182.882 83.5378 182.527 83.6289 182.123C83.7201 181.719 83.7656 181.286 83.7656 180.824V180.619C83.7656 180.163 83.7201 179.737 83.6289 179.34C83.5378 178.936 83.3945 178.581 83.1992 178.275C83.0104 177.963 82.763 177.719 82.457 177.543C82.1576 177.361 81.7962 177.27 81.373 177.27C80.9564 177.27 80.5983 177.361 80.2988 177.543C79.9993 177.719 79.7552 177.963 79.5664 178.275C79.3776 178.581 79.2376 178.936 79.1465 179.34C79.0553 179.737 79.0098 180.163 79.0098 180.619ZM99.5371 183.754V171H102.135V186H99.791L99.5371 183.754ZM92.75 180.844V180.639C92.75 179.831 92.8411 179.099 93.0234 178.441C93.2122 177.777 93.4857 177.208 93.8438 176.732C94.2018 176.257 94.6348 175.889 95.1426 175.629C95.6569 175.368 96.2396 175.238 96.8906 175.238C97.5221 175.238 98.0723 175.365 98.541 175.619C99.0163 175.873 99.4199 176.234 99.752 176.703C100.09 177.172 100.361 177.729 100.562 178.373C100.764 179.011 100.911 179.714 101.002 180.482V181.039C100.911 181.788 100.764 182.475 100.562 183.1C100.361 183.725 100.09 184.271 99.752 184.74C99.4199 185.202 99.0163 185.561 98.541 185.814C98.0658 186.068 97.5091 186.195 96.8711 186.195C96.2266 186.195 95.6471 186.062 95.1328 185.795C94.625 185.528 94.1921 185.154 93.834 184.672C93.4824 184.19 93.2122 183.624 93.0234 182.973C92.8411 182.322 92.75 181.612 92.75 180.844ZM95.3379 180.639V180.844C95.3379 181.299 95.377 181.726 95.4551 182.123C95.5332 182.52 95.6602 182.872 95.8359 183.178C96.0117 183.477 96.2363 183.712 96.5098 183.881C96.7897 184.05 97.1283 184.135 97.5254 184.135C98.0332 184.135 98.4499 184.024 98.7754 183.803C99.1074 183.575 99.3646 183.266 99.5469 182.875C99.7292 182.478 99.8464 182.032 99.8984 181.537V180.004C99.8724 179.613 99.804 179.252 99.6934 178.92C99.5892 178.588 99.4395 178.301 99.2441 178.061C99.0553 177.82 98.821 177.631 98.541 177.494C98.2611 177.357 97.929 177.289 97.5449 177.289C97.1478 177.289 96.8092 177.377 96.5293 177.553C96.2493 177.722 96.0215 177.96 95.8457 178.266C95.6699 178.572 95.5397 178.926 95.4551 179.33C95.377 179.734 95.3379 180.17 95.3379 180.639ZM109.215 186.195C108.414 186.195 107.695 186.065 107.057 185.805C106.419 185.544 105.875 185.183 105.426 184.721C104.983 184.252 104.641 183.708 104.4 183.09C104.166 182.465 104.049 181.794 104.049 181.078V180.688C104.049 179.874 104.166 179.135 104.4 178.471C104.635 177.8 104.967 177.224 105.396 176.742C105.826 176.26 106.34 175.889 106.939 175.629C107.538 175.368 108.199 175.238 108.922 175.238C109.671 175.238 110.331 175.365 110.904 175.619C111.477 175.867 111.956 176.218 112.34 176.674C112.724 177.13 113.014 177.676 113.209 178.314C113.404 178.946 113.502 179.646 113.502 180.414V181.498H105.221V179.721H110.963V179.525C110.95 179.115 110.872 178.741 110.729 178.402C110.585 178.057 110.364 177.784 110.064 177.582C109.765 177.374 109.378 177.27 108.902 177.27C108.518 177.27 108.183 177.354 107.896 177.523C107.617 177.686 107.382 177.921 107.193 178.227C107.011 178.526 106.874 178.884 106.783 179.301C106.692 179.717 106.646 180.18 106.646 180.688V181.078C106.646 181.521 106.705 181.931 106.822 182.309C106.946 182.686 107.125 183.015 107.359 183.295C107.6 183.568 107.887 183.783 108.219 183.939C108.557 184.089 108.941 184.164 109.371 184.164C109.911 184.164 110.4 184.06 110.836 183.852C111.279 183.637 111.663 183.321 111.988 182.904L113.287 184.252C113.066 184.577 112.766 184.89 112.389 185.189C112.018 185.489 111.568 185.733 111.041 185.922C110.514 186.104 109.905 186.195 109.215 186.195ZM120.406 171.781H125.572C126.653 171.781 127.581 171.944 128.355 172.27C129.13 172.595 129.726 173.077 130.143 173.715C130.559 174.353 130.768 175.137 130.768 176.068C130.768 176.804 130.637 177.442 130.377 177.982C130.117 178.523 129.749 178.975 129.273 179.34C128.805 179.704 128.251 179.991 127.613 180.199L126.773 180.629H122.213L122.193 178.51H125.602C126.155 178.51 126.614 178.412 126.979 178.217C127.343 178.021 127.617 177.751 127.799 177.406C127.988 177.061 128.082 176.667 128.082 176.225C128.082 175.749 127.991 175.339 127.809 174.994C127.626 174.643 127.35 174.372 126.979 174.184C126.607 173.995 126.139 173.9 125.572 173.9H123.092V186H120.406V171.781ZM128.434 186L125.143 179.633L127.984 179.623L131.314 185.863V186H128.434ZM132.467 180.824V180.619C132.467 179.844 132.577 179.132 132.799 178.48C133.02 177.823 133.342 177.253 133.766 176.771C134.189 176.29 134.706 175.915 135.318 175.648C135.93 175.375 136.627 175.238 137.408 175.238C138.202 175.238 138.906 175.375 139.518 175.648C140.136 175.915 140.657 176.29 141.08 176.771C141.503 177.253 141.826 177.823 142.047 178.48C142.268 179.132 142.379 179.844 142.379 180.619V180.824C142.379 181.592 142.268 182.305 142.047 182.963C141.826 183.614 141.503 184.184 141.08 184.672C140.657 185.154 140.139 185.528 139.527 185.795C138.915 186.062 138.215 186.195 137.428 186.195C136.646 186.195 135.947 186.062 135.328 185.795C134.71 185.528 134.189 185.154 133.766 184.672C133.342 184.184 133.02 183.614 132.799 182.963C132.577 182.305 132.467 181.592 132.467 180.824ZM135.045 180.619V180.824C135.045 181.286 135.09 181.719 135.182 182.123C135.273 182.527 135.413 182.882 135.602 183.188C135.79 183.493 136.035 183.734 136.334 183.91C136.64 184.079 137.005 184.164 137.428 184.164C137.844 184.164 138.202 184.079 138.502 183.91C138.801 183.734 139.046 183.493 139.234 183.188C139.43 182.882 139.573 182.527 139.664 182.123C139.755 181.719 139.801 181.286 139.801 180.824V180.619C139.801 180.163 139.755 179.737 139.664 179.34C139.573 178.936 139.43 178.581 139.234 178.275C139.046 177.963 138.798 177.719 138.492 177.543C138.193 177.361 137.831 177.27 137.408 177.27C136.992 177.27 136.633 177.361 136.334 177.543C136.035 177.719 135.79 177.963 135.602 178.275C135.413 178.581 135.273 178.936 135.182 179.34C135.09 179.737 135.045 180.163 135.045 180.619ZM149.254 175.434V177.289H143.199V175.434H149.254ZM144.82 172.836H147.408V182.953C147.408 183.266 147.451 183.507 147.535 183.676C147.62 183.845 147.747 183.959 147.916 184.018C148.085 184.076 148.287 184.105 148.521 184.105C148.691 184.105 148.847 184.096 148.99 184.076C149.133 184.057 149.254 184.037 149.352 184.018L149.361 185.951C149.146 186.023 148.902 186.081 148.629 186.127C148.362 186.173 148.059 186.195 147.721 186.195C147.141 186.195 146.633 186.098 146.197 185.902C145.761 185.701 145.423 185.378 145.182 184.936C144.941 184.486 144.82 183.894 144.82 183.158V172.836ZM156.793 183.754V178.881C156.793 178.523 156.731 178.214 156.607 177.953C156.484 177.693 156.295 177.491 156.041 177.348C155.787 177.204 155.465 177.133 155.074 177.133C154.729 177.133 154.426 177.191 154.166 177.309C153.912 177.426 153.717 177.592 153.58 177.807C153.443 178.015 153.375 178.256 153.375 178.529H150.787C150.787 178.093 150.891 177.68 151.1 177.289C151.308 176.892 151.604 176.54 151.988 176.234C152.379 175.922 152.844 175.678 153.385 175.502C153.932 175.326 154.544 175.238 155.221 175.238C156.021 175.238 156.734 175.375 157.359 175.648C157.991 175.915 158.486 176.319 158.844 176.859C159.208 177.4 159.391 178.08 159.391 178.9V183.51C159.391 184.037 159.423 184.49 159.488 184.867C159.56 185.238 159.664 185.561 159.801 185.834V186H157.174C157.05 185.733 156.956 185.395 156.891 184.984C156.826 184.568 156.793 184.158 156.793 183.754ZM157.154 179.564L157.174 181.098H155.543C155.139 181.098 154.785 181.14 154.479 181.225C154.173 181.303 153.922 181.42 153.727 181.576C153.531 181.726 153.385 181.908 153.287 182.123C153.189 182.331 153.141 182.569 153.141 182.836C153.141 183.096 153.199 183.331 153.316 183.539C153.44 183.747 153.616 183.913 153.844 184.037C154.078 184.154 154.352 184.213 154.664 184.213C155.12 184.213 155.517 184.122 155.855 183.939C156.194 183.751 156.458 183.523 156.646 183.256C156.835 182.989 156.936 182.735 156.949 182.494L157.691 183.607C157.6 183.874 157.464 184.158 157.281 184.457C157.099 184.757 156.865 185.036 156.578 185.297C156.292 185.557 155.947 185.772 155.543 185.941C155.139 186.111 154.671 186.195 154.137 186.195C153.453 186.195 152.841 186.059 152.301 185.785C151.76 185.512 151.334 185.137 151.021 184.662C150.709 184.187 150.553 183.646 150.553 183.041C150.553 182.481 150.657 181.986 150.865 181.557C151.074 181.127 151.383 180.766 151.793 180.473C152.203 180.173 152.711 179.949 153.316 179.799C153.928 179.643 154.628 179.564 155.416 179.564H157.154Z" fill="#555347"/>
</svg>
