<svg width="46" height="41" viewBox="0 0 46 41" fill="none" xmlns="http://www.w3.org/2000/svg">
<path d="M1 5C1 2.79086 2.79086 1 5 1H19.7028C20.7764 1 21.8049 1.43153 22.557 2.19755L25.9686 5.67216L29.2159 9.07311C29.9264 9.81725 30.3229 10.8066 30.3229 11.8354V35.5407C30.3229 37.7498 28.532 39.5407 26.3229 39.5407H5C2.79086 39.5407 1 37.7498 1 35.5407V5Z" fill="white" stroke="#555347" stroke-width="2"/>
<rect x="7.51749" y="8.98207" width="7.26691" height="2.85405" rx="1.42703" fill="#555347"/>
<rect x="7.51749" y="14.4999" width="15.9086" height="2.85405" rx="1.42703" fill="#555347"/>
<rect x="7.51749" y="20.208" width="15.9086" height="2.85405" rx="1.42703" fill="#555347"/>
<rect x="16.1592" y="8.98207" width="2.94604" height="2.85405" rx="1.42703" fill="#555347"/>
<rect x="20.4801" y="8.98207" width="2.94604" height="2.85405" rx="1.42703" fill="#555347"/>
<mask id="path-7-inside-1_15_7" fill="white">
<rect width="25.0484" height="7.36805" rx="1" transform="matrix(0.798153 -0.602455 0.626714 0.77925 20.7619 31.2846)"/>
</mask>
<rect width="25.0484" height="7.36805" rx="1" transform="matrix(0.798153 -0.602455 0.626714 0.77925 20.7619 31.2846)" fill="white" stroke="#555347" stroke-width="2.6" mask="url(#path-7-inside-1_15_7)"/>
<path d="M21.4768 31.6583C21.4946 31.5806 21.5396 31.5115 21.6042 31.4628L23.8911 29.7366C24.0454 29.6201 24.2687 29.6478 24.3898 29.7984L27.7541 33.9815C27.8752 34.1321 27.8484 34.3486 27.6941 34.4651L25.3369 36.2443C25.2876 36.2815 25.2289 36.3053 25.1668 36.3133L20.7741 36.8772C20.5288 36.9087 20.3246 36.6926 20.3782 36.4583L21.4768 31.6583Z" fill="white" stroke="#555347" stroke-width="1.3"/>
<mask id="path-9-inside-2_15_7" fill="white">
<rect width="5.49914" height="7.36805" rx="1" transform="matrix(0.798153 -0.602455 0.626714 0.77925 36.3652 19.507)"/>
</mask>
<rect width="5.49914" height="7.36805" rx="1" transform="matrix(0.798153 -0.602455 0.626714 0.77925 36.3652 19.507)" fill="white" stroke="#555347" stroke-width="2.6" mask="url(#path-9-inside-2_15_7)"/>
</svg>
