<svg width="165" height="191" viewBox="0 0 165 191" fill="none" xmlns="http://www.w3.org/2000/svg">
<path d="M4.62891 171.781H9.79492C10.8757 171.781 11.8034 171.944 12.5781 172.27C13.3529 172.595 13.9486 173.077 14.3652 173.715C14.7819 174.353 14.9902 175.137 14.9902 176.068C14.9902 176.804 14.86 177.442 14.5996 177.982C14.3392 178.523 13.9714 178.975 13.4961 179.34C13.0273 179.704 12.474 179.991 11.8359 180.199L10.9961 180.629H6.43555L6.41602 178.51H9.82422C10.3776 178.51 10.8366 178.412 11.2012 178.217C11.5658 178.021 11.8392 177.751 12.0215 177.406C12.2103 177.061 12.3047 176.667 12.3047 176.225C12.3047 175.749 12.2135 175.339 12.0312 174.994C11.849 174.643 11.5723 174.372 11.2012 174.184C10.8301 173.995 10.3613 173.9 9.79492 173.9H7.31445V186H4.62891V171.781ZM12.6562 186L9.36523 179.633L12.207 179.623L15.5371 185.863V186H12.6562ZM21.8945 186.195C21.0938 186.195 20.3743 186.065 19.7363 185.805C19.0983 185.544 18.5547 185.183 18.1055 184.721C17.6628 184.252 17.321 183.708 17.0801 183.09C16.8457 182.465 16.7285 181.794 16.7285 181.078V180.688C16.7285 179.874 16.8457 179.135 17.0801 178.471C17.3145 177.8 17.6465 177.224 18.0762 176.742C18.5059 176.26 19.0202 175.889 19.6191 175.629C20.2181 175.368 20.8789 175.238 21.6016 175.238C22.3503 175.238 23.0111 175.365 23.584 175.619C24.1569 175.867 24.6354 176.218 25.0195 176.674C25.4036 177.13 25.6934 177.676 25.8887 178.314C26.084 178.946 26.1816 179.646 26.1816 180.414V181.498H17.9004V179.721H23.6426V179.525C23.6296 179.115 23.5514 178.741 23.4082 178.402C23.265 178.057 23.0436 177.784 22.7441 177.582C22.4447 177.374 22.0573 177.27 21.582 177.27C21.1979 177.27 20.8626 177.354 20.5762 177.523C20.2962 177.686 20.0618 177.921 19.873 178.227C19.6908 178.526 19.554 178.884 19.4629 179.301C19.3717 179.717 19.3262 180.18 19.3262 180.688V181.078C19.3262 181.521 19.3848 181.931 19.502 182.309C19.6257 182.686 19.8047 183.015 20.0391 183.295C20.2799 183.568 20.5664 183.783 20.8984 183.939C21.237 184.089 21.6211 184.164 22.0508 184.164C22.5911 184.164 23.0794 184.06 23.5156 183.852C23.9583 183.637 24.3424 183.321 24.668 182.904L25.9668 184.252C25.7454 184.577 25.446 184.89 25.0684 185.189C24.6973 185.489 24.248 185.733 23.7207 185.922C23.1934 186.104 22.5846 186.195 21.8945 186.195ZM34.6289 175.434H36.9727V185.678C36.9727 186.635 36.7643 187.445 36.3477 188.109C35.9375 188.78 35.3613 189.288 34.6191 189.633C33.877 189.984 33.0143 190.16 32.0312 190.16C31.6081 190.16 31.1491 190.102 30.6543 189.984C30.166 189.867 29.694 189.682 29.2383 189.428C28.7891 189.18 28.4147 188.858 28.1152 188.461L29.2773 186.938C29.6289 187.348 30.026 187.657 30.4688 187.865C30.9115 188.08 31.39 188.188 31.9043 188.188C32.4251 188.188 32.8678 188.09 33.2324 187.895C33.6035 187.706 33.8867 187.426 34.082 187.055C34.2839 186.69 34.3848 186.241 34.3848 185.707V177.846L34.6289 175.434ZM27.4902 180.844V180.639C27.4902 179.831 27.5879 179.099 27.7832 178.441C27.9785 177.777 28.2585 177.208 28.623 176.732C28.9941 176.257 29.4401 175.889 29.9609 175.629C30.4883 175.368 31.0807 175.238 31.7383 175.238C32.4349 175.238 33.0208 175.365 33.4961 175.619C33.9779 175.873 34.375 176.234 34.6875 176.703C35.0065 177.172 35.2539 177.729 35.4297 178.373C35.612 179.011 35.752 179.714 35.8496 180.482V181.039C35.7585 181.788 35.612 182.475 35.4102 183.1C35.2148 183.725 34.9544 184.271 34.6289 184.74C34.3034 185.202 33.8997 185.561 33.418 185.814C32.9362 186.068 32.3698 186.195 31.7188 186.195C31.0677 186.195 30.4818 186.062 29.9609 185.795C29.4401 185.528 28.9941 185.154 28.623 184.672C28.2585 184.19 27.9785 183.624 27.7832 182.973C27.5879 182.322 27.4902 181.612 27.4902 180.844ZM30.0684 180.639V180.844C30.0684 181.299 30.1139 181.726 30.2051 182.123C30.2962 182.52 30.4362 182.872 30.625 183.178C30.8138 183.477 31.0514 183.712 31.3379 183.881C31.6243 184.05 31.9661 184.135 32.3633 184.135C32.8971 184.135 33.3333 184.024 33.6719 183.803C34.0169 183.575 34.2773 183.266 34.4531 182.875C34.6354 182.478 34.7526 182.032 34.8047 181.537V180.004C34.7721 179.613 34.7005 179.252 34.5898 178.92C34.4857 178.588 34.3392 178.301 34.1504 178.061C33.9616 177.82 33.7207 177.631 33.4277 177.494C33.1348 177.357 32.7865 177.289 32.3828 177.289C31.9922 177.289 31.6504 177.377 31.3574 177.553C31.0645 177.722 30.8236 177.96 30.6348 178.266C30.446 178.572 30.3027 178.926 30.2051 179.33C30.1139 179.734 30.0684 180.17 30.0684 180.639ZM42.0312 175.434V186H39.4434V175.434H42.0312ZM39.2676 172.67C39.2676 172.286 39.3978 171.967 39.6582 171.713C39.9251 171.459 40.2832 171.332 40.7324 171.332C41.1816 171.332 41.5365 171.459 41.7969 171.713C42.0638 171.967 42.1973 172.286 42.1973 172.67C42.1973 173.048 42.0638 173.363 41.7969 173.617C41.5365 173.871 41.1816 173.998 40.7324 173.998C40.2832 173.998 39.9251 173.871 39.6582 173.617C39.3978 173.363 39.2676 173.048 39.2676 172.67ZM50.3027 183.109C50.3027 182.888 50.2441 182.689 50.127 182.514C50.0098 182.338 49.7884 182.178 49.4629 182.035C49.1439 181.885 48.6751 181.745 48.0566 181.615C47.5098 181.498 47.0052 181.352 46.543 181.176C46.0807 181 45.6836 180.788 45.3516 180.541C45.0195 180.287 44.7591 179.991 44.5703 179.652C44.388 179.307 44.2969 178.91 44.2969 178.461C44.2969 178.025 44.3913 177.615 44.5801 177.23C44.7689 176.84 45.0423 176.498 45.4004 176.205C45.7585 175.906 46.1947 175.671 46.709 175.502C47.2233 175.326 47.8027 175.238 48.4473 175.238C49.3457 175.238 50.1172 175.385 50.7617 175.678C51.4128 175.971 51.9108 176.374 52.2559 176.889C52.6009 177.396 52.7734 177.969 52.7734 178.607H50.1953C50.1953 178.327 50.1302 178.074 50 177.846C49.8763 177.618 49.6842 177.436 49.4238 177.299C49.1634 177.156 48.8346 177.084 48.4375 177.084C48.0794 177.084 47.7767 177.143 47.5293 177.26C47.2884 177.377 47.1061 177.53 46.9824 177.719C46.8587 177.908 46.7969 178.116 46.7969 178.344C46.7969 178.513 46.8294 178.666 46.8945 178.803C46.9661 178.933 47.0801 179.053 47.2363 179.164C47.3926 179.275 47.6042 179.376 47.8711 179.467C48.1445 179.558 48.4798 179.646 48.877 179.73C49.6647 179.887 50.3516 180.095 50.9375 180.355C51.5299 180.609 51.9922 180.948 52.3242 181.371C52.6562 181.794 52.8223 182.335 52.8223 182.992C52.8223 183.461 52.7214 183.891 52.5195 184.281C52.3177 184.665 52.0247 185.001 51.6406 185.287C51.2565 185.574 50.7975 185.798 50.2637 185.961C49.7298 186.117 49.1276 186.195 48.457 186.195C47.487 186.195 46.6667 186.023 45.9961 185.678C45.3255 185.326 44.8177 184.883 44.4727 184.35C44.1276 183.809 43.9551 183.249 43.9551 182.67H46.4258C46.4453 183.08 46.556 183.409 46.7578 183.656C46.9596 183.904 47.2135 184.083 47.5195 184.193C47.832 184.298 48.1608 184.35 48.5059 184.35C48.8965 184.35 49.2253 184.298 49.4922 184.193C49.7591 184.083 49.9609 183.936 50.0977 183.754C50.2344 183.565 50.3027 183.35 50.3027 183.109ZM59.7852 175.434V177.289H53.7305V175.434H59.7852ZM55.3516 172.836H57.9395V182.953C57.9395 183.266 57.9818 183.507 58.0664 183.676C58.151 183.845 58.278 183.959 58.4473 184.018C58.6165 184.076 58.8184 184.105 59.0527 184.105C59.222 184.105 59.3783 184.096 59.5215 184.076C59.6647 184.057 59.7852 184.037 59.8828 184.018L59.8926 185.951C59.6777 186.023 59.4336 186.081 59.1602 186.127C58.8932 186.173 58.5905 186.195 58.252 186.195C57.6725 186.195 57.1647 186.098 56.7285 185.902C56.2923 185.701 55.9538 185.378 55.7129 184.936C55.472 184.486 55.3516 183.894 55.3516 183.158V172.836ZM64.082 177.592V186H61.5039V175.434H63.9453L64.082 177.592ZM67.2949 175.365L67.2559 177.768C67.1126 177.742 66.9499 177.722 66.7676 177.709C66.5918 177.696 66.4258 177.689 66.2695 177.689C65.8724 177.689 65.5241 177.745 65.2246 177.855C64.9251 177.96 64.6745 178.113 64.4727 178.314C64.2773 178.516 64.1276 178.764 64.0234 179.057C63.9193 179.343 63.8607 179.669 63.8477 180.033L63.291 179.965C63.291 179.294 63.3594 178.673 63.4961 178.1C63.6328 177.527 63.8314 177.025 64.0918 176.596C64.3522 176.166 64.6777 175.834 65.0684 175.6C65.4655 175.359 65.9212 175.238 66.4355 175.238C66.5788 175.238 66.7318 175.251 66.8945 175.277C67.0638 175.297 67.1973 175.326 67.2949 175.365ZM67.9785 180.824V180.619C67.9785 179.844 68.0892 179.132 68.3105 178.48C68.5319 177.823 68.8542 177.253 69.2773 176.771C69.7005 176.29 70.2181 175.915 70.8301 175.648C71.4421 175.375 72.1387 175.238 72.9199 175.238C73.7142 175.238 74.4173 175.375 75.0293 175.648C75.6478 175.915 76.1686 176.29 76.5918 176.771C77.015 177.253 77.3372 177.823 77.5586 178.48C77.7799 179.132 77.8906 179.844 77.8906 180.619V180.824C77.8906 181.592 77.7799 182.305 77.5586 182.963C77.3372 183.614 77.015 184.184 76.5918 184.672C76.1686 185.154 75.651 185.528 75.0391 185.795C74.4271 186.062 73.7272 186.195 72.9395 186.195C72.1582 186.195 71.4583 186.062 70.8398 185.795C70.2214 185.528 69.7005 185.154 69.2773 184.672C68.8542 184.184 68.5319 183.614 68.3105 182.963C68.0892 182.305 67.9785 181.592 67.9785 180.824ZM70.5566 180.619V180.824C70.5566 181.286 70.6022 181.719 70.6934 182.123C70.7845 182.527 70.9245 182.882 71.1133 183.188C71.3021 183.493 71.5462 183.734 71.8457 183.91C72.1517 184.079 72.5163 184.164 72.9395 184.164C73.3561 184.164 73.7142 184.079 74.0137 183.91C74.3132 183.734 74.5573 183.493 74.7461 183.188C74.9414 182.882 75.0846 182.527 75.1758 182.123C75.2669 181.719 75.3125 181.286 75.3125 180.824V180.619C75.3125 180.163 75.2669 179.737 75.1758 179.34C75.0846 178.936 74.9414 178.581 74.7461 178.275C74.5573 177.963 74.3099 177.719 74.0039 177.543C73.7044 177.361 73.3431 177.27 72.9199 177.27C72.5033 177.27 72.1452 177.361 71.8457 177.543C71.5462 177.719 71.3021 177.963 71.1133 178.275C70.9245 178.581 70.7845 178.936 70.6934 179.34C70.6022 179.737 70.5566 180.163 70.5566 180.619ZM91.084 183.754V171H93.6816V186H91.3379L91.084 183.754ZM84.2969 180.844V180.639C84.2969 179.831 84.388 179.099 84.5703 178.441C84.7591 177.777 85.0326 177.208 85.3906 176.732C85.7487 176.257 86.1816 175.889 86.6895 175.629C87.2038 175.368 87.7865 175.238 88.4375 175.238C89.069 175.238 89.6191 175.365 90.0879 175.619C90.5632 175.873 90.9668 176.234 91.2988 176.703C91.6374 177.172 91.9076 177.729 92.1094 178.373C92.3112 179.011 92.4577 179.714 92.5488 180.482V181.039C92.4577 181.788 92.3112 182.475 92.1094 183.1C91.9076 183.725 91.6374 184.271 91.2988 184.74C90.9668 185.202 90.5632 185.561 90.0879 185.814C89.6126 186.068 89.056 186.195 88.418 186.195C87.7734 186.195 87.194 186.062 86.6797 185.795C86.1719 185.528 85.7389 185.154 85.3809 184.672C85.0293 184.19 84.7591 183.624 84.5703 182.973C84.388 182.322 84.2969 181.612 84.2969 180.844ZM86.8848 180.639V180.844C86.8848 181.299 86.9238 181.726 87.002 182.123C87.0801 182.52 87.207 182.872 87.3828 183.178C87.5586 183.477 87.7832 183.712 88.0566 183.881C88.3366 184.05 88.6751 184.135 89.0723 184.135C89.5801 184.135 89.9967 184.024 90.3223 183.803C90.6543 183.575 90.9115 183.266 91.0938 182.875C91.276 182.478 91.3932 182.032 91.4453 181.537V180.004C91.4193 179.613 91.3509 179.252 91.2402 178.92C91.1361 178.588 90.9863 178.301 90.791 178.061C90.6022 177.82 90.3678 177.631 90.0879 177.494C89.8079 177.357 89.4759 177.289 89.0918 177.289C88.6947 177.289 88.3561 177.377 88.0762 177.553C87.7962 177.722 87.5684 177.96 87.3926 178.266C87.2168 178.572 87.0866 178.926 87.002 179.33C86.9238 179.734 86.8848 180.17 86.8848 180.639ZM100.762 186.195C99.9609 186.195 99.2415 186.065 98.6035 185.805C97.9655 185.544 97.4219 185.183 96.9727 184.721C96.5299 184.252 96.1882 183.708 95.9473 183.09C95.7129 182.465 95.5957 181.794 95.5957 181.078V180.688C95.5957 179.874 95.7129 179.135 95.9473 178.471C96.1816 177.8 96.5137 177.224 96.9434 176.742C97.373 176.26 97.8874 175.889 98.4863 175.629C99.0853 175.368 99.7461 175.238 100.469 175.238C101.217 175.238 101.878 175.365 102.451 175.619C103.024 175.867 103.503 176.218 103.887 176.674C104.271 177.13 104.561 177.676 104.756 178.314C104.951 178.946 105.049 179.646 105.049 180.414V181.498H96.7676V179.721H102.51V179.525C102.497 179.115 102.419 178.741 102.275 178.402C102.132 178.057 101.911 177.784 101.611 177.582C101.312 177.374 100.924 177.27 100.449 177.27C100.065 177.27 99.7298 177.354 99.4434 177.523C99.1634 177.686 98.929 177.921 98.7402 178.227C98.5579 178.526 98.4212 178.884 98.3301 179.301C98.2389 179.717 98.1934 180.18 98.1934 180.688V181.078C98.1934 181.521 98.252 181.931 98.3691 182.309C98.4928 182.686 98.6719 183.015 98.9062 183.295C99.1471 183.568 99.4336 183.783 99.7656 183.939C100.104 184.089 100.488 184.164 100.918 184.164C101.458 184.164 101.947 184.06 102.383 183.852C102.826 183.637 103.21 183.321 103.535 182.904L104.834 184.252C104.613 184.577 104.313 184.89 103.936 185.189C103.564 185.489 103.115 185.733 102.588 185.922C102.061 186.104 101.452 186.195 100.762 186.195ZM116.953 183.217L120.498 171.781H123.477L118.457 186H116.475L116.953 183.217ZM113.682 171.781L117.207 183.217L117.715 186H115.713L110.713 171.781H113.682ZM127.48 175.434V186H124.893V175.434H127.48ZM124.717 172.67C124.717 172.286 124.847 171.967 125.107 171.713C125.374 171.459 125.732 171.332 126.182 171.332C126.631 171.332 126.986 171.459 127.246 171.713C127.513 171.967 127.646 172.286 127.646 172.67C127.646 173.048 127.513 173.363 127.246 173.617C126.986 173.871 126.631 173.998 126.182 173.998C125.732 173.998 125.374 173.871 125.107 173.617C124.847 173.363 124.717 173.048 124.717 172.67ZM135.752 183.109C135.752 182.888 135.693 182.689 135.576 182.514C135.459 182.338 135.238 182.178 134.912 182.035C134.593 181.885 134.124 181.745 133.506 181.615C132.959 181.498 132.454 181.352 131.992 181.176C131.53 181 131.133 180.788 130.801 180.541C130.469 180.287 130.208 179.991 130.02 179.652C129.837 179.307 129.746 178.91 129.746 178.461C129.746 178.025 129.84 177.615 130.029 177.23C130.218 176.84 130.492 176.498 130.85 176.205C131.208 175.906 131.644 175.671 132.158 175.502C132.673 175.326 133.252 175.238 133.896 175.238C134.795 175.238 135.566 175.385 136.211 175.678C136.862 175.971 137.36 176.374 137.705 176.889C138.05 177.396 138.223 177.969 138.223 178.607H135.645C135.645 178.327 135.579 178.074 135.449 177.846C135.326 177.618 135.133 177.436 134.873 177.299C134.613 177.156 134.284 177.084 133.887 177.084C133.529 177.084 133.226 177.143 132.979 177.26C132.738 177.377 132.555 177.53 132.432 177.719C132.308 177.908 132.246 178.116 132.246 178.344C132.246 178.513 132.279 178.666 132.344 178.803C132.415 178.933 132.529 179.053 132.686 179.164C132.842 179.275 133.053 179.376 133.32 179.467C133.594 179.558 133.929 179.646 134.326 179.73C135.114 179.887 135.801 180.095 136.387 180.355C136.979 180.609 137.441 180.948 137.773 181.371C138.105 181.794 138.271 182.335 138.271 182.992C138.271 183.461 138.171 183.891 137.969 184.281C137.767 184.665 137.474 185.001 137.09 185.287C136.706 185.574 136.247 185.798 135.713 185.961C135.179 186.117 134.577 186.195 133.906 186.195C132.936 186.195 132.116 186.023 131.445 185.678C130.775 185.326 130.267 184.883 129.922 184.35C129.577 183.809 129.404 183.249 129.404 182.67H131.875C131.895 183.08 132.005 183.409 132.207 183.656C132.409 183.904 132.663 184.083 132.969 184.193C133.281 184.298 133.61 184.35 133.955 184.35C134.346 184.35 134.674 184.298 134.941 184.193C135.208 184.083 135.41 183.936 135.547 183.754C135.684 183.565 135.752 183.35 135.752 183.109ZM142.969 175.434V186H140.381V175.434H142.969ZM140.205 172.67C140.205 172.286 140.335 171.967 140.596 171.713C140.863 171.459 141.221 171.332 141.67 171.332C142.119 171.332 142.474 171.459 142.734 171.713C143.001 171.967 143.135 172.286 143.135 172.67C143.135 173.048 143.001 173.363 142.734 173.617C142.474 173.871 142.119 173.998 141.67 173.998C141.221 173.998 140.863 173.871 140.596 173.617C140.335 173.363 140.205 173.048 140.205 172.67ZM150.43 175.434V177.289H144.375V175.434H150.43ZM145.996 172.836H148.584V182.953C148.584 183.266 148.626 183.507 148.711 183.676C148.796 183.845 148.923 183.959 149.092 184.018C149.261 184.076 149.463 184.105 149.697 184.105C149.867 184.105 150.023 184.096 150.166 184.076C150.309 184.057 150.43 184.037 150.527 184.018L150.537 185.951C150.322 186.023 150.078 186.081 149.805 186.127C149.538 186.173 149.235 186.195 148.896 186.195C148.317 186.195 147.809 186.098 147.373 185.902C146.937 185.701 146.598 185.378 146.357 184.936C146.117 184.486 145.996 183.894 145.996 183.158V172.836ZM157.969 183.754V178.881C157.969 178.523 157.907 178.214 157.783 177.953C157.66 177.693 157.471 177.491 157.217 177.348C156.963 177.204 156.641 177.133 156.25 177.133C155.905 177.133 155.602 177.191 155.342 177.309C155.088 177.426 154.893 177.592 154.756 177.807C154.619 178.015 154.551 178.256 154.551 178.529H151.963C151.963 178.093 152.067 177.68 152.275 177.289C152.484 176.892 152.78 176.54 153.164 176.234C153.555 175.922 154.02 175.678 154.561 175.502C155.107 175.326 155.719 175.238 156.396 175.238C157.197 175.238 157.91 175.375 158.535 175.648C159.167 175.915 159.661 176.319 160.02 176.859C160.384 177.4 160.566 178.08 160.566 178.9V183.51C160.566 184.037 160.599 184.49 160.664 184.867C160.736 185.238 160.84 185.561 160.977 185.834V186H158.35C158.226 185.733 158.132 185.395 158.066 184.984C158.001 184.568 157.969 184.158 157.969 183.754ZM158.33 179.564L158.35 181.098H156.719C156.315 181.098 155.96 181.14 155.654 181.225C155.348 181.303 155.098 181.42 154.902 181.576C154.707 181.726 154.561 181.908 154.463 182.123C154.365 182.331 154.316 182.569 154.316 182.836C154.316 183.096 154.375 183.331 154.492 183.539C154.616 183.747 154.792 183.913 155.02 184.037C155.254 184.154 155.527 184.213 155.84 184.213C156.296 184.213 156.693 184.122 157.031 183.939C157.37 183.751 157.633 183.523 157.822 183.256C158.011 182.989 158.112 182.735 158.125 182.494L158.867 183.607C158.776 183.874 158.639 184.158 158.457 184.457C158.275 184.757 158.04 185.036 157.754 185.297C157.467 185.557 157.122 185.772 156.719 185.941C156.315 186.111 155.846 186.195 155.312 186.195C154.629 186.195 154.017 186.059 153.477 185.785C152.936 185.512 152.51 185.137 152.197 184.662C151.885 184.187 151.729 183.646 151.729 183.041C151.729 182.481 151.833 181.986 152.041 181.557C152.249 181.127 152.559 180.766 152.969 180.473C153.379 180.173 153.887 179.949 154.492 179.799C155.104 179.643 155.804 179.564 156.592 179.564H158.33Z" fill="#555347"/>
<rect x="8" width="150" height="150" rx="75" fill="#555347"/>
<path d="M57.5 40C57.5 36.4101 60.4101 33.5 64 33.5H89.7413C91.5216 33.5 93.224 34.2302 94.451 35.5201L100.45 41.8271L106.287 48.137C107.398 49.3383 108.015 50.9144 108.015 52.5508V96.8405C108.015 100.43 105.105 103.34 101.515 103.34H64C60.4101 103.34 57.5 100.43 57.5 96.8405V40Z" fill="#555347" stroke="white" stroke-width="7"/>
<rect x="67.8037" y="47.0245" width="13.3436" height="5.40955" rx="2.70478" fill="white"/>
<rect x="67.8037" y="57.483" width="29.2116" height="5.40955" rx="2.70478" fill="white"/>
<rect x="67.8037" y="68.3021" width="29.2116" height="5.40955" rx="2.70478" fill="white"/>
<rect x="83.6719" y="47.0245" width="5.40955" height="5.40955" rx="2.70478" fill="white"/>
<rect x="91.606" y="47.0245" width="5.40955" height="5.40955" rx="2.70478" fill="white"/>
<mask id="path-9-inside-1_146_180" fill="white">
<rect x="92.2124" y="87.1004" width="38.9152" height="11.5361" rx="2" transform="rotate(-37.9236 92.2124 87.1004)"/>
</mask>
<rect x="92.2124" y="87.1004" width="38.9152" height="11.5361" rx="2" transform="rotate(-37.9236 92.2124 87.1004)" fill="#555347" stroke="white" stroke-width="5" mask="url(#path-9-inside-1_146_180)"/>
<path d="M93.5065 87.8946C93.5443 87.7243 93.6402 87.5725 93.7778 87.4654L96.8078 85.1046C97.1345 84.85 97.6058 84.9085 97.8603 85.2352L102.492 91.1799C102.747 91.5067 102.688 91.9779 102.361 92.2325L99.1921 94.7019C99.087 94.7838 98.9619 94.8362 98.8297 94.8537L92.8184 95.6503C92.302 95.7187 91.8749 95.2529 91.9876 94.7444L93.5065 87.8946Z" fill="#555347" stroke="white" stroke-width="2.5"/>
<mask id="path-11-inside-2_146_180" fill="white">
<rect x="116.17" y="68.4337" width="8.54346" height="11.5361" rx="2" transform="rotate(-37.9236 116.17 68.4337)"/>
</mask>
<rect x="116.17" y="68.4337" width="8.54346" height="11.5361" rx="2" transform="rotate(-37.9236 116.17 68.4337)" fill="#555347" stroke="white" stroke-width="6" mask="url(#path-11-inside-2_146_180)"/>
</svg>
